<?xml version="1.0" standalone="no"?>
<!DOCTYPE svg PUBLIC "-//W3C//DTD SVG 1.1//EN" "http://www.w3.org/Graphics/SVG/1.1/DTD/svg11.dtd" >
<!--
2013-9-30: Created.
-->
<svg>
<metadata>
Created by iconfont
</metadata>
<defs>

<font id="iconfont" horiz-adv-x="1024" >
  <font-face
    font-family="iconfont"
    font-weight="500"
    font-stretch="normal"
    units-per-em="1024"
    ascent="896"
    descent="-128"
  />
    <missing-glyph />
    
    <glyph glyph-name="35" unicode="&#58999;" d="M959 401.128 617.522 401.128 511.971 728.375 406.435 401.128 65 401.128l276.247-202.256L235.71-128.375l276.261 202.241L788.29-128.375 682.754 198.872 959 401.128zM731.717-50.034l-219.746 160.83L292.283-50.02l83.929 260.227L156.146 371.328l271.982 0 83.842 259.964 83.856-259.964 272.027 0L647.788 210.207 731.717-50.034z"  horiz-adv-x="1024" />

    
    <glyph glyph-name="jiazai" unicode="&#59111;" d="M614.4 658.4c0-70.656-57.28-128-128-128s-128 57.344-128 128 57.344 128 128 128S614.4 729.12 614.4 658.4zM757.888 430.752c29.504 0 59.008 11.264 81.472 33.728 44.992 44.992 44.992 117.888 0 162.88-22.528 22.528-52.032 33.728-81.472 33.728s-58.88-11.264-81.344-33.728c-44.992-44.992-44.992-117.888 0-162.88C699.008 442.016 728.512 430.752 757.888 430.752zM870.4 376.864C813.888 376.8 768 331.04 768 274.464S813.888 172 870.4 172c56.64 0 102.4 45.888 102.4 102.464C972.736 331.04 926.976 376.864 870.4 376.864zM758.016 92.512c-22.976 0-45.888-8.768-63.36-26.24-35.008-35.008-35.008-91.776 0-126.72 17.472-17.472 40.384-26.24 63.36-26.24 22.848 0 45.888 8.768 63.36 26.368 35.008 34.88 35.008 91.648 0 126.656C803.904 83.744 780.864 92.512 758.016 92.512zM486.528-32.736c-42.432 0-76.8-34.496-76.8-76.864 0-42.496 34.368-76.736 76.864-76.736 42.368 0 76.736 34.368 76.736 76.736S528.896-32.736 486.528-32.736zM214.912 66.72c-16.384 0-32.768-6.272-45.312-18.752-25.024-25.024-25.024-65.472 0-90.496 12.48-12.48 28.864-18.752 45.248-18.752s32.768 6.272 45.312 18.752c24.96 25.024 25.024 65.6 0 90.496C247.744 60.512 231.296 66.72 214.912 66.72zM102.4 325.536c-28.288 0-51.2-22.848-51.2-51.2 0-28.224 22.848-51.2 51.2-51.2 28.288 0 51.264 22.912 51.2 51.2C153.664 302.688 130.688 325.536 102.4 325.536zM214.848 507.552 214.848 507.552c2.432 0 4.8 0.96 7.232 1.408 7.232 1.408 14.272 4.224 19.904 9.856 15.04 14.976 14.976 39.296 0 54.336C234.496 580.576 224.64 584.352 214.848 584.352c-9.856 0-19.648-3.776-27.2-11.264-14.976-14.976-14.976-39.296 0-54.272C195.136 511.264 204.992 507.552 214.848 507.552z"  horiz-adv-x="1024" />

    
    <glyph glyph-name="qiandao" unicode="&#58956;" d="M908.459009 171.935276c0-189.053774-153.203264-342.308203-342.30718-342.308203-121.884978 0-228.938156 63.74993-289.591561 159.737074 0 0-126.543068-8.119935-154.818041-8.889461s-62.664202 24.26566-65.679885 58.563814 23.555485 63.637366 58.588373 65.655326 114.550942 6.598278 114.550942 6.598278c-3.520173 19.682271-5.357008 39.947827-5.357008 60.642149 0 57.756425 14.306844 112.168686 39.566134 159.89057 0 0-8.375761 2.322905-20.59813 14.412244S134.002458 462.231895 114.502335 481.91212s-26.195615 60.168358 2.479471 88.019683 71.075779 15.328104 87.969541-2.480494 123.890658-130.539079 128.234593-135.648446 4.344958-5.109368 4.344958-5.109368c17.61724 15.820314 36.884049 29.839609 57.509808 41.768289 0 0-44.093241 190.264345-52.679803 225.537709s14.775518 67.113537 46.414099 74.730005 67.584258-13.173021 74.852802-46.439682 49.501414-212.130352 49.501414-212.130352c17.281595 2.688225 34.988886 4.084015 53.021587 4.084015 11.750625 0 23.363104-0.591471 34.808784-1.746784 0 0 16.155958 137.986701 20.135596 174.313048s37.736463 57.71447 68.953442 54.695716 58.356083-36.82265 54.645574-69.026096-20.645203-179.211615-21.397333-185.410803-1.968841-9.918907-1.968841-9.918907c25.427112-12.94994 49.018414-28.983101 70.282716-47.608298 0 0 44.925189 81.442894 61.309344 114.182552s55.293327 40.402175 84.274382 25.314549 41.48381-54.103222 25.341155-84.299965S874.686834 320.403702 874.686834 320.403702C896.330784 275.494886 908.459009 225.133895 908.459009 171.935276zM566.152852 389.776699c-120.3009 0-217.841424-97.5395-217.841424-217.742163 0-120.400161 97.540524-217.940684 217.841424-217.940684 120.325459 0 217.8404 97.5395 217.8404 217.940684C783.992229 292.237199 686.478312 389.776699 566.152852 389.776699zM513.043261 195.192979c0-13.784958-11.05887-25.043373-24.868387-25.043373l0 0c-13.68672 0-24.892947 11.258415-24.892947 25.043373l0 66.349127c0 13.81054 11.206226 24.943089 24.892947 24.943089l0 0c13.809517 0 24.868387-11.132548 24.868387-24.943089L513.043261 195.192979zM685.362908 195.192979c0-13.784958-11.131525-25.043373-24.917506-25.043373l0 0c-13.71128 0-24.844851 11.258415-24.844851 25.043373l0 66.349127c0 13.81054 11.133571 24.943089 24.844851 24.943089l0 0c13.785981 0 24.917506-11.132548 24.917506-24.943089L685.362908 195.192979zM453.264782 73.453311c-5.950526 4.808516-6.79373 13.388938-1.983167 19.21462l0 0c4.76042 5.875824 13.338796 6.745634 19.241226 1.960655l0 0c1.784646-1.388627 3.619434-2.828418 5.454222-4.166903l0 0c61.09138-46.166459 145.589866-41.925878 201.823612 7.188726l0 0c5.702885 4.958942 14.332427 4.439102 19.264762-1.239224l0 0c5.009084-5.699816 4.463662-14.430664-1.214664-19.289322l0 0c-66.051345-57.670467-164.708296-62.431911-236.386802-8.53028l0 0C457.430662 70.131659 455.272509 71.817044 453.264782 73.453311L453.264782 73.453311z"  horiz-adv-x="1024" />

    
    <glyph glyph-name="31gouwuche" unicode="&#58880;" d="M846.35916 170.740942l-491.37117 0c-13.794168 0-26.936489 12.44545-28.705785 27.183106l-51.509141 362.723162-29.127388 168.117952c-5.294586 43.370787-43.400462 77.285201-86.785575 77.285201l-38.540781 0c-15.869433 0-28.77844-12.910031-28.77844-28.77844s12.910031-28.77844 28.77844-28.77844l38.540781 0c14.302751 0 27.966958-12.851703 29.851888-28.053939l29.184693-168.726819 51.305503-361.272114c5.250584-43.313481 42.921555-77.226872 85.784782-77.226872l491.37117 0c15.869433 0 28.77844 12.910031 28.77844 28.77844C875.138624 157.831934 862.228593 170.740942 846.35916 170.740942zM914.563542 688.730353c-15.143908 17.145495-36.001959 26.574239-58.688657 26.574239L332.084351 715.304591c-15.869433 0-28.77844-12.910031-28.77844-28.77844s12.910031-28.77844 28.77844-28.77844l523.790534 0c6.179746 0 11.43033-2.407839 15.607466-7.136537 6.208399-7.020904 9.370415-18.538215 8.064676-29.358655l-47.664579-272.730545c-1.769296-14.534018-15.637142-26.51591-30.896684-26.602891l-410.28541-30.258141c-7.658424-0.551562-14.620999-4.03285-19.640316-9.863648-5.033643-5.802146-7.484462-13.229303-6.919597-20.887726 1.087774-14.969946 13.678534-26.689872 28.662807-26.689872 0.681522 0 1.407046 0.028653 2.118244 0.086981l408.153864 30.17116c42.935881 0 80.534198 33.217543 85.697801 75.601862l47.694255 272.730545C939.919023 641.413698 931.941328 669.11869 914.563542 688.730353zM362.821399-38.049339c32.536021 0 59.022255 26.487258 59.022255 59.007929 0 32.550347-26.487258 59.037605-59.022255 59.037605s-59.022255-26.487258-59.022255-59.037605C303.798121-11.563104 330.285379-38.049339 362.821399-38.049339zM786.364765-38.049339c32.521694 0 59.007929 26.487258 59.007929 59.007929 0 32.550347-26.487258 59.037605-59.007929 59.037605-32.550347 0-59.036581-26.487258-59.036581-59.037605C727.328183-11.563104 753.814418-38.049339 786.364765-38.049339z"  horiz-adv-x="1024" />

    
    <glyph glyph-name="fenleisousuo" unicode="&#59058;" d="M86.803483 556.125355 320.953338 556.125355c6.963599 22.214954 15.225773 43.449581 24.448832 63.74993L86.803483 619.875285c-12.602016 0-22.829961-14.280238-22.829961-31.875988C63.974545 570.405593 74.201467 556.125355 86.803483 556.125355L86.803483 556.125355zM89.113085 232.217221l292.821115 0c-11.596106 20.200064-22.167882 41.430598-31.232328 63.940265L89.113085 296.157485c-13.44522 0-24.357757-14.292518-24.357757-31.971156C64.756351 246.507692 75.667865 232.217221 89.113085 232.217221L89.113085 232.217221zM864.956216-19.580572l-776.617773 0c-13.396101 0-24.26873-14.280238-24.26873-31.953759 0-17.674545 10.872628-31.955806 24.26873-31.955806l776.617773 0c13.419637 0 24.26873 14.280238 24.26873 31.955806C889.224945-33.86081 878.375853-19.580572 864.956216-19.580572L864.956216-19.580572zM954.333826 70.009885l-134.892223 137.825019c57.589626 49.586348 91.324962 119.535467 92.205005 201.487967 1.623987 151.293775-119.717615 275.266297-271.004227 276.889261-151.287635 1.623987-275.268344-119.719662-276.891308-271.007297-1.623987-151.282518 119.722732-275.262204 271.010367-276.886191 52.756551-0.566912 91.296309 4.558829 133.376707 29.933753l139.659807-142.688793c8.854669-9.05012 31.270191-2.25332 40.271192 6.604418 8.998955 8.804527 15.075347 28.844955 6.269797 37.842887L954.333826 70.009885zM635.458311 203.261749c-115.438149 1.237177-208.006428 95.837742-206.768227 211.250308 1.239224 115.430986 95.818299 208.001311 211.254402 206.762087 115.391077-1.238201 207.999264-95.818299 206.761064-211.249285C845.466326 294.612293 750.848365 202.021501 635.458311 203.261749L635.458311 203.261749zM634.73381 208.930865"  horiz-adv-x="1024" />

    
    <glyph glyph-name="tubiao02" unicode="&#58935;" d="M533.204945 648.159723c-11.435995 13.314876-30.184888 13.314876-41.620883 0l-342.378861-399.573165c-11.435995-13.319992-6.434858-24.25659 11.19346-24.25659l128.001279 0c17.621155 0 31.995203-14.379165 31.995203-32.007483l0-256.048609c0-17.626271 14.378142-32.00339 32.001343-32.00339l320.002175 0c17.628318 0 31.996226 14.378142 31.996226 32.00339L704.394887 192.321461c0 17.629342 14.376095 32.007483 32.005437 32.007483l127.999232 0c17.621155 0 22.624339 10.937621 11.185273 24.25659L533.204945 648.159723zM192.395911 736.426164l640.002303 0c35.375346 0 64.00064 28.633481 64.00064 64.011897 0 35.382509-28.625294 64.011897-64.00064 64.011897l-640.002303 0c-35.371252 0-63.99757-28.629387-63.99757-64.011897C128.398341 765.059644 157.023635 736.426164 192.395911 736.426164z"  horiz-adv-x="1025" />

    
    <glyph glyph-name="qqkongjian" unicode="&#58973;" d="M511.994372 746.765188c-246.736767 0-446.75649-200.035072-446.75649-446.7657s200.051445-446.764676 446.75649-446.764676c246.773606 0 446.76877 200.028932 446.76877 446.764676C958.762118 546.730116 758.761838 746.765188 511.994372 746.765188M799.32676 360.041016l-127.789582-116.869871c-6.633077-6.210452-8.007379-9.190322-6.633077-17.818849l2.773163-14.88912c-61.78115 0.780783-130.525906 3.531433-186.279777 11.23796-4.546554 0.66208-0.331552 3.083225-0.331552 3.083225l181.246128 122.874638c0 0 7.16929 4.356219-0.506537 5.486973-9.911754 1.579986-30.671587 4.356219-30.627585 4.394081-36.674307 4.386918-76.93326 6.80397-119.195848 6.80397-71.624342 0-137.551933-6.963606-189.914564-18.654891 1.786694 0 3.560086 0.042979 5.339617 0.042979 77.488916 0 159.917336-2.881633 234.326097-14.252623 4.6847-0.621147-0.062422-3.506874-0.062422-3.506874l-181.007698-125.791063c0 0-7.601126-4.418641-0.599658-5.505393 18.730615-2.520406 38.490678-4.515855 59.064269-5.911646l0.106424 0.065492c23.395873-1.623989 47.803797-2.489706 72.941339-2.489706 68.094956 0 141.561251 7.413861 194.973795 19.923792l3.647067 0.696872c-8.949845-7.086403-23.933109-13.353136-39.391188-18.471719l25.819064-138.562961c2.811025-14.893213-5.876853-20.878537-19.286271-13.293784l-150.955211 85.242515c-10.342566 6.260594-20.067055 6.071282-30.628608-0.4083l-150.21229-84.833192c-13.409418-7.578613-22.046131-1.620919-19.198267 13.286621l33.738439 173.664445c1.767252 7.800671 1.654688 10.222839-4.546554 15.890938l-131.600379 118.341387c-11.211354 10.4582-7.762809 20.24204 7.644105 21.756535l167.724147 18.415437c13.041027 1.208526 15.53278 3.228534 20.91026 12.13847l78.918476 160.710399c6.77634 13.621242 17.843408 13.621242 24.613609 0l74.047534-160.710399c4.140301-10.532901 7.114032-12.557003 20.35972-13.765529l173.151768-16.788378C807.314696 380.064069 810.661934 370.368233 799.32676 360.041016"  horiz-adv-x="1024" />

    
    <glyph glyph-name="dianpu1" unicode="&#58905;" d="M575.756581 26.929718l20.135596 0 0-3.473101-20.135596 0 0 3.473101ZM664.349315 48.423241l4.983501 0 0-16.10684-4.983501 0 0 16.10684ZM433.10565 40.219395l-15.528672 0c-0.050142-0.067538-0.100284-0.125867-0.150426-0.176009 1.946328-2.50096 4.405333-4.555759 7.374968-6.166443C428.273599 35.739361 431.042665 37.853511 433.10565 40.219395zM442.770777 48.222673l-36.846186 0 0-37.70167 36.846186 0L442.770777 48.222673zM435.169659 12.181829c-7.416923 1.64343-15.386432 3.052522-23.909549 4.227278l1.057075 3.474125c8.389064-1.107217 16.45988-2.399653 24.211425-3.875261L435.169659 12.181829zM416.545486 23.104599l1.006933 3.371794c4.932336-0.737804 10.117428-1.576915 15.553231-2.51631l-1.057075-3.52222C426.545234 21.544057 421.377538 22.43331 416.545486 23.104599zM440.001711 25.722216c-5.955642 1.358951-10.990309 2.894933-15.099906 4.605901-4.111644-1.846044-9.56382-3.64911-16.359596-5.411243-0.469698 1.107217-1.040702 2.181689-1.711991 3.221368 5.889127 1.208525 10.754948 2.592035 14.597463 4.152577-2.365884 1.62808-4.40431 3.498684-6.116301 5.611811-1.594311-1.526773-3.330862-3.019777-5.209652-4.479011-0.671289 0.704035-1.493004 1.526773-2.466168 2.466168 4.596691 3.322675 8.372691 7.230682 11.32493 11.728112l3.322675-1.559519c-0.621147-0.923022-1.292436-1.829671-2.013867-2.717901l17.818831 0 0-2.969635c-2.466168-2.987031-5.611811-5.680373-9.437953-8.080026 3.539616-1.191128 7.877411-2.121314 13.011338-2.792603C440.890964 27.986793 440.337355 26.72915 440.001711 25.722216zM680.052972 48.524548l5.033643 0 0-16.208147-5.033643 0 0 16.208147ZM575.756581 20.335533l20.135596 0 0-3.473101-20.135596 0 0 3.473101ZM847.475076 194.913617c-50.973952 0-94.690616 30.976502-112.547309 74.709539-17.655102-43.733037-60.908208-74.709539-111.338784-74.709539-50.431599 0-93.691869 30.976502-111.346971 74.709539-17.851577-43.733037-61.571311-74.709539-112.541169-74.709539-50.432623 0-93.691869 30.976502-111.351064 74.709539-17.847483-43.733037-61.566194-74.709539-112.537076-74.709539-12.009522 0-23.595394 1.804089-34.543747 5.069459l0-247.673869c0-23.025413 25.588795-51.169403 48.615231-51.169403l643.521452 0c23.024389 0 48.613184 28.14399 48.613184 51.169403L882.018823 199.890978C871.06126 196.691099 859.482551 194.913617 847.475076 194.913617zM880.101147 586.928918 140.629389 586.928918 63.867098 386.067214c0-60.131519 49.897434-110.021789 111.306039-110.021789 61.405535 0 112.581078 48.613184 112.581078 110.021789 0-60.131519 49.897434-110.021789 111.307062-110.021789s112.581078 48.613184 112.581078 110.021789c0-60.131519 49.89641-110.021789 111.306039-110.021789 61.411675 0 111.301945 48.613184 111.301945 110.021789 0-60.131519 49.897434-110.021789 112.586195-110.021789 61.409628 0 112.585171 48.613184 112.585171 110.021789L880.101147 586.928918 880.101147 586.928918zM844.273151 588.208051 844.273151 588.208051l2.557242-1.279133L844.273151 588.208051zM191.800839 621.018318l639.678938 0c21.75549 0 38.385239 16.630772 38.385239 38.383192 0 21.748327-16.629749 38.380122-38.385239 38.380122l-639.678938 0c-21.747303 0-38.378076-16.631796-38.378076-38.379099C153.422763 637.64909 170.054559 621.018318 191.800839 621.018318L191.800839 621.018318z"  horiz-adv-x="1024" />

    
    <glyph glyph-name="completed" unicode="&#58922;" d="M512 814.182c-257.071 0-465.455-208.384-465.455-465.455s208.384-465.455 465.455-465.455c257.071 0 465.455 208.384 465.455 465.455 0 257.071-208.384 465.455-465.455 465.455zM512-70.182c-231.377 0-418.909 187.532-418.909 418.909s187.532 418.909 418.909 418.909c231.377 0 418.909-187.532 418.909-418.909s-187.532-418.909-418.909-418.909zM734.161 490.598l-312.692-312.692-131.631 131.631c-9.076 9.076-23.831 9.076-32.908 0-9.076-9.076-9.076-23.831 0-32.908l148.108-148.108c9.076-9.076 23.831-9.076 32.908 0l329.123 329.123c9.076 9.076 9.076 23.831 0 32.908-9.076 9.123-23.831 9.123-32.908 0.047z"  horiz-adv-x="1024" />

    
    <glyph glyph-name="sirenlicai03" unicode="&#58889;" d="M398.291 388.479v-451.209l444.278 129.072v198.296zM785.924 536.535l-207.467 170.14v60.59l207.467-190.406v-40.324zM785.924 465.711l-207.467 132.909v57.705l207.467-152.75v-37.864zM785.924 381.119l-207.467 100.908v66.241l207.467-123.842v-43.307zM805.13 594.989l-243.527 237.022v-456.544l243.526-74.992-0 294.514zM181.431 4.366l200.75-68.377v446.73l-200.75-72.642zM238.39 493.232l284.914 158.613v-79.361l-284.914-128.321v49.069zM238.39 561.073l284.915 191.682v-60.585l-284.915-170.031v38.934zM544.534 380.692v443.534l-317.555-229.236v-235.418l171.312 66.137 146.244-45.017z"  horiz-adv-x="1024" />

    
    <glyph glyph-name="xiangxia" unicode="&#59000;" d="M581.684355 256.566683 581.684355 832.689102 442.07004 832.689102 442.07004 256.566683 255.92376 256.566683 511.890501-62.053962 767.824495 256.566683Z"  horiz-adv-x="1025" />

    
    <glyph glyph-name="kalendar" unicode="&#58904;" d="M854.956 774.574h-95.271c0 31.58-25.591 57.173-57.16 57.173-31.559 0-57.153-25.592-57.153-57.173h-76.215c0 31.58-25.595 57.173-57.155 57.173-31.571 0-57.163-25.592-57.163-57.173h-76.208c0 31.58-25.592 57.173-57.163 57.173-31.569 0-57.162-25.592-57.162-57.173h-95.261c-42.086 0-76.215-34.109-76.215-76.196v-685.908c0-42.087 34.129-76.216 76.215-76.216h685.908c42.089 0 76.209 34.13 76.209 76.216l0 685.908c0.001 42.088-34.119 76.196-76.208 76.196zM683.481 774.574c0 10.527 8.527 19.064 19.044 19.064 10.526 0 19.054-8.537 19.054-19.064v-38.108c0-10.507-8.528-19.043-19.054-19.043-10.517 0-19.044 8.536-19.044 19.043v38.108zM492.94 774.574c0 10.527 8.536 19.064 19.064 19.064 10.514 0 19.044-8.537 19.044-19.064v-38.108c0-10.507-8.529-19.043-19.044-19.043-10.528 0-19.064 8.536-19.064 19.043v38.108zM302.418 774.574c0 10.527 8.528 19.064 19.054 19.064 10.518 0 19.056-8.537 19.056-19.064v-38.108c0-10.507-8.538-19.043-19.056-19.043-10.525 0-19.054 8.536-19.054 19.043v38.108zM893.057 12.47c0-21.052-17.066-38.108-38.1-38.108h-685.909c-21.052 0-38.107 17.055-38.107 38.108l-0 552.539h762.114l0-552.539zM893.057 603.098h-762.115v95.28c0 21.034 17.054 38.088 38.107 38.088h95.261c0-31.56 25.594-57.153 57.162-57.153 31.571 0 57.163 25.593 57.163 57.153h76.208c0-31.56 25.592-57.153 57.163-57.153 31.56 0 57.155 25.593 57.155 57.153h76.215c0-31.56 25.594-57.153 57.153-57.153 31.57 0 57.16 25.593 57.16 57.153h95.272c21.035 0 38.1-17.054 38.1-38.088l0-95.28zM321.471 317.316c31.571 0 57.163 25.592 57.163 57.153 0 31.56-25.592 57.153-57.163 57.153-31.569 0-57.162-25.593-57.162-57.153-0-31.561 25.594-57.153 57.162-57.153zM321.471 393.532c10.518 0 19.056-8.537 19.056-19.063 0-10.527-8.538-19.046-19.056-19.046-10.525 0-19.054 8.519-19.054 19.046 0.001 10.526 8.529 19.063 19.054 19.063zM512.005 317.316c31.56 0 57.155 25.592 57.155 57.153 0 31.56-25.595 57.153-57.155 57.153-31.571 0-57.163-25.593-57.163-57.153 0-31.561 25.592-57.153 57.163-57.153zM512.005 393.532c10.514 0 19.044-8.537 19.044-19.063 0-10.527-8.529-19.046-19.044-19.046-10.528 0-19.064 8.519-19.064 19.046-0 10.526 8.536 19.063 19.064 19.063zM702.525 317.316c31.57 0 57.16 25.592 57.16 57.153 0 31.56-25.591 57.153-57.16 57.153-31.559 0-57.153-25.593-57.153-57.153 0.001-31.561 25.595-57.153 57.153-57.153zM702.525 393.532c10.526 0 19.054-8.537 19.054-19.063 0-10.527-8.528-19.046-19.054-19.046-10.517 0-19.044 8.519-19.044 19.046 0 10.526 8.527 19.063 19.044 19.063zM512.005 107.73c31.56 0 57.155 25.592 57.155 57.153 0 31.58-25.595 57.173-57.155 57.173-31.571 0-57.163-25.593-57.163-57.173 0-31.561 25.592-57.153 57.163-57.153zM512.005 183.947c10.514 0 19.044-8.537 19.044-19.064 0-10.526-8.529-19.044-19.044-19.044-10.528 0-19.064 8.518-19.064 19.044-0 10.527 8.536 19.064 19.064 19.064zM702.525 107.73c31.57 0 57.16 25.592 57.16 57.153 0 31.58-25.591 57.173-57.16 57.173-31.559 0-57.153-25.593-57.153-57.173 0.001-31.561 25.595-57.153 57.153-57.153zM702.525 183.947c10.526 0 19.054-8.537 19.054-19.064 0-10.526-8.528-19.044-19.054-19.044-10.517 0-19.044 8.518-19.044 19.044 0 10.527 8.527 19.064 19.044 19.064zM321.471 107.73c31.571 0 57.163 25.592 57.163 57.153 0 31.58-25.592 57.173-57.163 57.173-31.569 0-57.162-25.593-57.162-57.173-0-31.561 25.594-57.153 57.162-57.153zM321.471 183.947c10.518 0 19.056-8.537 19.056-19.064 0-10.526-8.538-19.044-19.056-19.044-10.525 0-19.054 8.518-19.054 19.044 0.001 10.527 8.529 19.064 19.054 19.064z"  horiz-adv-x="1024" />

    
    <glyph glyph-name="chayuericheng" unicode="&#59001;" d="M918.065-60.686h-811.371c-14.145 0-25.611 11.466-25.611 25.611v740.021c0 14.145 11.467 25.611 25.611 25.611h811.372c14.145 0 25.611-11.467 25.611-25.611v-740.020c-0-14.146-11.467-25.612-25.612-25.612zM132.305-9.462h760.149l0 688.797h-760.149v-688.797zM915.399 485.605h-806.249c-14.145 0-25.611 11.467-25.611 25.611s11.467 25.611 25.611 25.611h806.249c14.145 0 25.611-11.467 25.611-25.611s-11.466-25.611-25.611-25.611zM248.687 582.265c-14.145 0-25.611 11.467-25.611 25.611v196.162c0 14.145 11.467 25.611 25.611 25.611s25.611-11.467 25.611-25.611v-196.161c0.001-14.146-11.466-25.612-25.611-25.612zM786.618 582.265c-14.145 0-25.611 11.467-25.611 25.611v196.162c0 14.145 11.466 25.611 25.611 25.611s25.611-11.467 25.611-25.611v-196.161c0-14.146-11.466-25.612-25.611-25.612zM468.549 125.131c-6.793 0-13.307 2.698-18.11 7.501l-87.662 87.664c-10.002 10.001-10.002 26.218 0 36.221 10.003 10.001 26.219 10.002 36.221-0.001l69.551-69.552 157.212 157.214c10.003 10.001 26.219 10.001 36.221 0 10.002-10.002 10.002-26.219 0.001-36.221l-175.323-175.324c-4.803-4.802-11.318-7.501-18.11-7.501z"  horiz-adv-x="1024" />

    
    <glyph glyph-name="daipingjia01" unicode="&#58919;" d="M946.652889 702.635037 830.013379 819.271478c-0.401136 0.401136-0.823761 0.779759-1.26583 1.133823-8.506744 6.80294-19.040658 10.550287-29.66053 10.550287-11.252275 0-21.595854-4.151553-29.120224-11.683087L283.428699 332.733383c-1.644453-1.64343-2.89391-3.640923-3.653203-5.837962l-81.907475-236.884129c-1.919722-5.552459-0.50142-11.714809 3.653203-15.869433 2.926656-2.926656 6.850012-4.496407 10.855232-4.496407 1.679245 0 3.373841 0.276293 5.0142 0.842181l236.885152 81.906451c2.197038 0.760317 4.193509 2.009773 5.837962 3.653203l486.539118 486.539118c0.404206 0.403183 0.783853 0.828878 1.139963 1.274016C962.383152 662.128485 961.892989 687.395962 946.652889 702.635037zM315.989279 321.880197l394.033261 394.033261 133.271306-133.269259-394.034285-394.034285L315.989279 321.880197zM300.772716 293.680948l120.28862-120.287597-183.861518-63.572898L300.772716 293.680948zM924.243507 663.592836l-59.243289-59.243289L731.728912 737.61983l59.950394 59.950394c1.729387 1.731434 4.361331 2.686179 7.40669 2.686179 3.451612 0 6.945179-1.197268 9.912767-3.385097l115.946732-115.944686C928.782893 677.090245 928.419619 669.293675 924.243507 663.592836zM839.182202-8.034744c0-12.272511-9.984399-22.25691-22.255887-22.25691L117.448434-30.291654c-12.272511 0-22.25691 9.984399-22.25691 22.25691L95.191524 689.793568c0 12.272511 9.984399 22.25691 22.25691 22.25691l415.343613 0 0 30.699186L117.448434 742.749664c-29.200042 0-52.956096-23.756053-52.956096-52.956096l0-697.828312c0-29.200042 23.756053-52.956096 52.956096-52.956096l699.477882 0c29.199019 0 52.955072 23.756053 52.955072 52.956096L869.881388 405.660322l-30.699186 0L839.182202-8.034744z"  horiz-adv-x="1024" />

    
    <glyph glyph-name="wodeshoucang" unicode="&#59003;" d="M978.411 332.273l-422.774-421.479c-51.888-51.726-136.013-51.726-187.901 0l-328.821 327.815c-51.888 51.726-51.888 135.603 0 187.323l422.774 421.475c32.296 33.785 38.487 48.593 72.371 48.593h429.459c33.883 0 61.352-27.384 61.352-61.165v-428.14c0-33.779-19.242-47.29-46.46-74.422zM85.89 285.442l328.823-327.817c25.944-25.86 68.005-25.86 93.95 0l46.478 46.335-421.782 422.473-47.47-47.327c-25.944-25.864-25.944-67.798 0-93.664zM963.52 804.25c0 16.892-13.734 30.583-30.675 30.583h-368.108c-16.943 0-40.997-19.219-56.074-34.25l-328.319-327.313 422.264-421.989 328.827 327.823c16.547 16.496 32.084 41.276 32.084 58.168v366.979zM626.101 496.181c-51.888 51.728-51.888 135.593 0 187.319 51.886 51.732 136.013 51.732 187.899 0 51.888-51.726 51.888-135.591 0-187.319-51.888-51.724-136.013-51.724-187.899 0zM767.024 636.675c-25.944 25.862-68.005 25.862-93.95 0-25.946-25.866-25.946-67.798 0-93.666 25.946-25.86 68.007-25.86 93.95 0 25.946 25.868 25.946 67.8 0 93.666z"  horiz-adv-x="1025" />

    
    <glyph glyph-name="qiandao1" unicode="&#58890;" d="M608.706529 91.145116 909.59846 505.278157c17.164938 23.62814 50.348712 28.780487 74.048483 11.56643l14.011108-10.184967c23.732517-17.242709 29.127388-50.26787 11.888771-74.000388L708.660009 18.527215 608.706529 91.145116 608.706529 91.145116zM598.336344 76.866924 698.284707 4.249023 577.526389-56.865893 598.336344 76.866924ZM268.778536 447.173808c33.816177 0 61.23055 27.414373 61.23055 61.23055s-27.414373 61.231573-61.23055 61.231573c-33.8172 0-61.231573-27.415396-61.231573-61.231573S234.961336 447.173808 268.778536 447.173808L268.778536 447.173808zM590.43028 447.173808c33.816177 0 61.23055 27.414373 61.23055 61.23055s-27.414373 61.231573-61.23055 61.231573-61.231573-27.415396-61.231573-61.231573S556.614104 447.173808 590.43028 447.173808L590.43028 447.173808zM469.753827-81.35668c-256.599146 0-465.35668 208.757534-465.35668 465.35668S213.153658 849.35668 469.753827 849.35668c154.828274 0 299.080679-76.69373 385.867278-205.15652 7.571443-11.205203 4.624321-26.433022-6.587022-34.004465-11.193947-7.577582-26.433022-4.629437-34.004465 6.587022C737.361701 731.738889 608.291067 800.372036 469.753827 800.372036c-229.586932 0-416.372036-186.785104-416.372036-416.372036s186.785104-416.372036 416.372036-416.372036c13.529131 0 24.491811-10.963703 24.491811-24.491811S483.281935-81.35668 469.753827-81.35668zM432.109462 133.172301c-66.490344 0-132.974547 25.307386-183.590342 75.92318-14.349823 14.344706-14.349823 37.610596 0 51.954279 14.344706 14.344706 37.610596 14.344706 51.954279 0 72.582085-72.570829 190.671621-72.582085 263.264962 0 14.344706 14.344706 37.610596 14.344706 51.954279 0 14.349823-14.344706 14.349823-37.610596 0-51.954279C565.077869 158.479687 498.593665 133.172301 432.109462 133.172301z"  horiz-adv-x="1024" />

    
    <glyph glyph-name="20gouwuchefill" unicode="&#58936;" d="M352.972955 64.139761c-35.434907 0-63.989249-28.554342-63.989249-63.989249 0-35.434907 28.554342-63.989249 63.989249-63.989249s63.989249 28.554342 63.989249 63.989249C416.962204 35.585419 388.407862 64.139761 352.972955 64.139761L352.972955 64.139761zM801.069713 64.139761c-35.434907 0-63.989249-28.554342-63.989249-63.989249 0-35.434907 28.554342-63.989249 63.989249-63.989249s63.989249 28.554342 63.989249 63.989249C865.058962 35.585419 836.332605 64.139761 801.069713 64.139761L801.069713 64.139761zM937.304888 707.472535C920.963548 726.050059 898.429699 736.026877 874.003696 736.026877L232.907106 736.026877l-2.236183 13.073072c-5.676466 46.615824-46.615824 82.910801-93.231648 82.910801L97.015958 832.010751c-17.717453 0-31.994625-14.277171-31.994625-31.994625s14.277171-31.994625 31.994625-31.994625l40.251302 0c13.933143 0 28.210314-12.729044 29.930455-28.210314l30.96254-178.550647 54.356459-382.043339c5.676466-46.615824 46.099782-83.082815 92.371577-83.082815l520.17067 0c17.717453 0 31.994625 14.277171 31.994625 31.994625s-14.277171 31.994625-31.994625 31.994625L344.716278 160.123635c-13.589115 0-27.006215 12.55703-28.898371 27.522258l-5.332437 37.327062 507.61364 31.306568c46.099782 0 86.695112 36.466991 92.027549 81.362674L960.870821 625.937846C964.483118 656.728372 956.054426 686.486813 937.304888 707.472535z"  horiz-adv-x="1024" />

    
    <glyph glyph-name="shezhi" unicode="&#58955;" d="M512 198.4c102.4 0 182.4 83.2 182.4 185.6 0 102.4-83.2 185.6-182.4 185.6-102.4 0-182.4-83.2-182.4-185.6C329.6 281.6 412.8 198.4 512 198.4L512 198.4zM512 249.6c-73.6 0-134.4 60.8-134.4 134.4 0 73.6 60.8 134.4 134.4 134.4 73.6 0 134.4-60.8 134.4-134.4C646.4 310.4 585.6 249.6 512 249.6L512 249.6zM249.015232 52.821408c35.2-28.8 73.6-51.2 112-67.2 41.6 38.4 96 60.8 150.4 60.8 57.6 0 108.8-22.4 150.4-60.8 41.6 16 80 38.4 112 67.2-12.8 54.4-3.2 112 22.4 163.2 28.8 48 73.6 86.4 128 102.4 3.2 22.4 6.4 44.8 6.4 67.2 0 22.4-3.2 44.8-6.4 67.2-54.4 16-99.2 54.4-128 102.4-28.8 48-35.2 108.8-22.4 163.2-35.2 28.8-73.6 51.2-112 67.2-41.6-38.4-92.8-60.8-150.4-60.8-54.4 0-108.8 22.4-150.4 60.8-41.6-16-80-38.4-112-67.2 12.8-54.4 3.2-112-22.4-163.2-28.8-48-73.6-86.4-128-102.4-3.2-22.4-6.4-44.8-6.4-67.2 0-22.4 3.2-44.8 6.4-67.2 54.4-16 99.2-54.4 128-102.4C252.215232 164.821408 261.815232 107.221408 249.015232 52.821408M361.015232-62.378592c-54.4 19.2-105.6 48-150.4 89.6-6.4 6.4-9.6 16-6.4 22.4 16 48 9.6 99.2-16 140.8-25.6 44.8-64 73.6-112 83.2-9.6 3.2-16 9.6-16 19.2-6.4 28.8-9.6 60.8-9.6 89.6 0 28.8 3.2 57.6 9.6 89.6 3.2 9.6 9.6 16 16 19.2 48 12.8 89.6 41.6 112 83.2 25.6 44.8 28.8 92.8 16 140.8-3.2 9.6 0 19.2 6.4 22.4 44.8 38.4 96 67.2 150.4 89.6 9.6 3.2 16 0 22.4-6.4 35.2-35.2 80-57.6 128-57.6 48 0 96 19.2 128 57.6 6.4 6.4 16 9.6 22.4 6.4 54.4-19.2 105.6-48 150.4-89.6 6.4-6.4 9.6-16 6.4-22.4-16-48-9.6-99.2 16-140.8 25.6-44.8 64-73.6 112-83.2 9.6-3.2 16-9.6 16-19.2 6.4-28.8 9.6-60.8 9.6-89.6 0-28.8-3.2-57.6-9.6-89.6-3.2-9.6-9.6-16-16-19.2-48-12.8-89.6-41.6-112-83.2-25.6-44.8-28.8-92.8-16-140.8 3.2-9.6 0-19.2-6.4-22.4-44.8-38.4-96-67.2-150.4-89.6-9.6-3.2-16 0-22.4 6.4-35.2 35.2-80 57.6-128 57.6-48 0-96-19.2-128-57.6-3.2-3.2-9.6-6.4-16-6.4C364.215232-62.378592 361.015232-62.378592 361.015232-62.378592z"  horiz-adv-x="1024" />

    
    <glyph glyph-name="duoren" unicode="&#58953;" d="M800 70.4c0 0 0 115.2-19.2 140.8-12.8 19.2-25.6 38.4-51.2 51.2 0 12.8 0 32 0 32s-12.8 12.8-25.6 44.8c-19.2 6.4-19.2 12.8-19.2 25.6 0 0-6.4 44.8 6.4 44.8 0 0 6.4 6.4 6.4 12.8 0 19.2-6.4 44.8 0 57.6 0 12.8-6.4 38.4 19.2 44.8 25.6 6.4 12.8 0 25.6 6.4 6.4 0 6.4 6.4 19.2 6.4l32 6.4c12.8 0 25.6-12.8 32-19.2 6.4 0-6.4 6.4 12.8 0 25.6-6.4 19.2-38.4 19.2-51.2 0-12.8 0-44.8 0-57.6 0-12.8 12.8-6.4 12.8-6.4 12.8 6.4 6.4-44.8 6.4-44.8 0-12.8 6.4-12.8-6.4-25.6C857.6 313.6 832 294.4 832 294.4s0-25.6 0-25.6c0 0-12.8-38.4 57.6-44.8 70.4-12.8 76.8-32 89.6-44.8 38.4-25.6 44.8-102.4 44.8-102.4S889.6 70.4 800 70.4zM633.6 416C620.8 377.6 576 358.4 576 358.4S576 326.4 576 320c0 0-12.8-51.2 64-64 89.6-12.8 96-38.4 108.8-57.6 19.2-12.8 12.8-128 12.8-128l-512 0c0 0 0 102.4 12.8 128 0 6.4 19.2 44.8 108.8 57.6C460.8 275.2 441.6 320 448 320c0 19.2 0 44.8 0 44.8S396.8 377.6 384 416C352 428.8 358.4 435.2 352 448 352 448 345.6 512 364.8 512 364.8 512 384 512 384 524.8c0 25.6 0 64 6.4 83.2 0 12.8 12.8 57.6 44.8 64 32 6.4 19.2 0 32 6.4 12.8 0 6.4 6.4 25.6 6.4l38.4 19.2c19.2 0 32-38.4 44.8-38.4 12.8 0 12.8 6.4 32 0C640 652.8 640 608 640 595.2 640 576 640 531.2 640 518.4c0-12.8 6.4-12.8 6.4-12.8 25.6 0 19.2-57.6 19.2-57.6C665.6 435.2 652.8 435.2 633.6 416zM320 339.2C307.2 313.6 288 294.4 288 294.4s0-19.2 0-32c-25.6-12.8-32-32-44.8-51.2-19.2-51.2-19.2-140.8-19.2-140.8-89.6 0-224 0-224 0s0 76.8 44.8 102.4c12.8 12.8 25.6 32 89.6 44.8C198.4 230.4 192 262.4 192 268.8c0 6.4 0 25.6 0 25.6S166.4 313.6 153.6 345.6C140.8 352 140.8 358.4 140.8 371.2c0 0 0 38.4 12.8 38.4 0 0 6.4 0 6.4 6.4 0 12.8 0 44.8 0 57.6 0 12.8 0 44.8 19.2 51.2 19.2 0 0 0 12.8 0 6.4 0 19.2 19.2 32 19.2l32-6.4c12.8 0 12.8-6.4 19.2-6.4 6.4 0 0 0 25.6-6.4C326.4 524.8 320 499.2 320 486.4c0-12.8 0-38.4 0-57.6 0-12.8 12.8-12.8 12.8-12.8 12.8 0 6.4-44.8 6.4-44.8C332.8 358.4 339.2 352 320 339.2z"  horiz-adv-x="1024" />

    
    <glyph glyph-name="icon-yxj-more" unicode="&#58891;" d="M512-128c-282.112 0-512 229.888-512 512s229.888 512 512 512 512-229.888 512-512-229.888-512-512-512zM512 848.384c-256 0-464.384-208.384-464.384-464.384s208.384-464.384 464.384-464.384 464.384 208.384 464.384 464.384-208.384 464.384-464.384 464.384zM821.76 358.4h-604.672c-12.8 0-23.040 12.8-23.040 25.6s10.24 25.6 23.040 25.6h604.672c12.8 0 23.040-12.8 23.040-25.6s-10.24-25.6-23.040-25.6zM519.68 58.368c-12.8 0-23.040 10.24-23.040 23.040l0 604.672c0 12.8 10.24 23.040 23.040 23.040s23.040-10.24 23.040-23.040l0-604.16c0-12.8-10.24-23.552-23.040-23.552z"  horiz-adv-x="1024" />

    
    <glyph glyph-name="yduidunpaikongxin" unicode="&#59004;" d="M512.001535-63.719998l-9.508561 3.679809c-305.311591 118.010741-340.617701 272.260847-340.617701 378.013403L161.875273 721.895707l27.254737-0.930185c212.224496-7.227612 302.595736 88.554872 303.444057 89.48608l19.453051 21.268396 19.426445-21.268396c0.713244-0.768503 86.358857-89.870844 280.771685-89.870844l0.031722 0c7.390317 0 14.944364 0.107447 22.611997 0.384763l27.254737 0.930185 0-403.922493c0-105.753579-35.307134-260.002662-340.617701-378.013403L512.001535-63.719998 512.001535-63.719998zM214.573495 667.878442l0-349.905228c0-56.875359 0.028653-207.02917 297.42804-325.147358 297.425993 118.118188 297.425993 268.272 297.425993 325.147358L809.427528 667.878442c-164.6909 0.633427-259.455193 59.240219-297.425993 89.517803C474.001059 727.149361 379.235742 668.567127 214.573495 667.878442L214.573495 667.878442zM275.955494 361.798349l54.153364 43.88244 108.368126-79.957053c0 0 149.629879 154.797575 294.098201 227.033783l20.635993-23.245424c0 0-180.570565-149.636019-273.441742-348.312964L275.955494 361.798349 275.955494 361.798349zM275.955494 361.798349"  horiz-adv-x="1024" />

    
    <glyph glyph-name="jifen" unicode="&#58907;" d="M433.68843 503.051296c101.861174 0 207.804288 22.402015 271.42708 65.115205l0-77.763622 58.948509 0L764.064018 660.668163c0 102.359862-170.169196 157.621732-330.275851 157.621732C273.676647 818.289895 103.412579 763.028025 103.412579 660.668163l0-464.692803c0-102.359862 170.16433-157.621732 330.275851-157.621732l0 58.843906c-168.174446 0-271.431945 57.555833-271.431945 98.777826L162.256485 335.671102c63.627657-42.613453 169.471033-65.12007 271.431945-65.12007l0 58.948509c-168.174446 0-271.431945 57.550967-271.431945 98.771745L162.256485 568.066764C225.884142 525.453311 331.827255 503.051296 433.68843 503.051296L433.68843 503.051296zM433.68843 759.445989c168.174446 0 271.42708-57.557049 271.42708-98.777826 0-41.221993-103.25385-98.772961-271.42708-98.772961-168.174446 0-271.431945 57.550967-271.431945 98.772961C162.256485 701.88894 265.613722 759.445989 433.68843 759.445989L433.68843 759.445989zM697.747098 470.789866c-146.266253 0-222.736937-56.258029-222.736937-111.819112l0-298.614061c0-55.556218 76.570421-111.815463 222.736937-111.815463 145.177655 0 221.544952 55.461345 222.741802 110.622262l0.099737 0L920.588637 358.970754C920.4889 414.531837 844.018216 470.789866 697.747098 470.789866L697.747098 470.789866zM697.747098 411.942311c108.137339 0 163.893031-37.140054 163.893031-52.971557s-55.755693-52.971557-163.893031-52.971557c-108.132473 0-163.893031 37.140054-163.893031 52.971557S589.613408 411.942311 697.747098 411.942311L697.747098 411.942311zM697.747098 7.385136c-108.132473 0-163.893031 37.140054-163.893031 52.971557l0 71.296497c37.339529-20.316041 92.207314-33.857231 163.893031-33.857231 71.690582 0 126.45863 13.541189 163.893031 33.857231l0-71.296497C861.640129 44.526406 805.884436 7.385136 697.747098 7.385136L697.747098 7.385136zM697.747098 156.744468c-108.132473 0-163.893031 37.140054-163.893031 52.971557l0 71.291632c37.339529-20.311176 92.207314-33.852366 163.893031-33.852366 71.690582 0 126.45863 13.541189 163.893031 33.852366l0-71.291632C861.640129 193.884522 805.884436 156.744468 697.747098 156.744468L697.747098 156.744468zM697.747098 156.744468"  horiz-adv-x="1024" />

    
    <glyph glyph-name="kefu2" unicode="&#58941;" d="M895.782 330.961c0.214 8.695 0.238 17.542 0.060 26.412 2.368 119.969-33.338 221.1-103.267 292.484-33.357 34.038-73.921 60.164-120.404 77.964-7.215 64.803-77.596 115.824-163.083 115.824s-155.862-51.021-163.078-115.825c-46.484-17.799-87.041-43.925-120.394-77.964-69.949-71.385-105.667-172.316-103.287-291.924-0.209-11.304-0.138-21.913 0.214-32.286-18.125-18.242-32.324-45.797-21.95-84.465 7.713-28.728 28.968-50.259 55.049-59.679 13.255-8.173 28.823-12.933 45.481-13.041 33.254-145.395 153.971-244.105 311.612-244.105 157.352 0 278.099 98.956 311.163 244.436 1.018-0.223 2.076-0.346 3.159-0.346 20.768 0 39.868 7.252 54.936 19.329 19.696 11.173 35.101 29.871 41.413 53.405 11.441 42.625-6.988 71.752-27.623 89.78v0zM371.536 504.411c2.503-4.19 62.579-103.25 175.771-146.186 31.227-11.844 63.224-18.623 94.164-25.172 62.068-13.151 120.698-25.572 160.645-77.424 0.418-0.542 0.879-1.041 1.356-1.512-0.060-2.616-0.060-2.62-0.060-2.62 0-19.329-1.46-38.017-4.276-55.972-51.355-82.051-136.558-135.814-242.11-147.397-7.866 10.383-23.891 17.539-42.505 17.539-26.399 0-47.819-14.286-47.819-31.872 0-17.622 21.42-31.879 47.819-31.879 23.659 0 43.151 11.514 46.945 26.572 34.046 3.912 66.507 12.048 96.935 24.335 43.469 17.557 81.772 43.126 113.84 76.010 5.135 5.256 10.060 10.7 14.828 16.288-38.219-116.403-140.387-191.232-273.768-191.245v0c-0.238 0.012-0.894 0.012-1.132 0.012-171.148 0-290.683 122.381-290.683 297.886l-0.318 16.697c-0.214 7.157 0.898 27.262 2.090 46.54 93.299 33.007 132.039 127.842 133.734 132.105l14.547 57.294zM433.072 238.473c0-30.556-24.772-55.329-55.331-55.329-30.558 0-55.33 24.773-55.33 55.329 0 30.559 24.772 55.332 55.33 55.332 30.558-0 55.331-24.773 55.331-55.332zM690.735 238.473c0-30.069-24.376-54.446-54.447-54.446-30.070 0-54.447 24.377-54.447 54.446 0 30.072 24.377 54.447 54.447 54.447 30.071 0 54.447-24.375 54.447-54.447z"  horiz-adv-x="1024" />

    
    <glyph glyph-name="geren6" unicode="&#58943;" d="M692.921981 729.723755c8.646592-34.785469 9.499874-37.686628 8.703478-73.410706-0.31287-13.766285-8.219951-77.449575-6.086746-96.989737 1.76345-16.09859 5.773876-17.378513 12.145049-30.661271 11.035782-23.095503 7.338227-54.95137 3.100258-78.245972-2.332304-12.742346-7.224456-30.888814-14.704896-41.298855-8.219951-11.490867-24.688297-11.547751-31.941195-24.944281-10.49537-19.255734-4.579281-46.304778-11.177996-67.124862-7.508882-23.579029-26.650845-25.228708-28.072983-56.117522 9.357661-1.308365 18.715321-2.673618 28.072983-3.981983 9.386104-19.93836 26.565517-60.071063 44.114686-72.159226 14.704896-4.010426 29.381348-8.049295 44.086244-12.031278 51.538241-21.132954 108.76503-46.390106 160.360156-68.1488 47.015846-19.824589 103.275581-26.90683 120.284339-76.198095 0-33.44866 3.157144-112.491029 2.303862-156.34973l-1023.938564 0c-0.881725 43.858701 2.275419 122.90107 2.275419 156.34973 16.980314 49.291265 73.268493 56.345063 120.284339 76.198095 51.62357 21.758694 108.8788 47.015846 160.360156 68.1488 14.704896 3.981983 29.409791 8.020852 44.114686 12.031278 17.549169 12.088164 34.728583 52.220867 44.086244 72.159226l20.876969 5.062807c-4.721495 26.366418-21.047626 28.414295-27.84544 47.044288-2.673618 28.072983-5.318792 56.145964-7.992409 84.190505 0.113771-1.336809-19.198848 3.526899-21.758694 5.091251-27.2197 17.065643-27.760112 86.352152-30.376844 115.164646-1.194595 13.168988 17.094085 23.977228 12.031278 48.125112-29.864875 141.417293 12.913003 207.575101 80.464505 229.532895 46.902075 18.999749 134.505708 54.240302 216.221694 3.981983l20.251229-18.772207 32.82292-5.660104C682.42661 761.209865 692.921981 729.723755 692.921981 729.723755z"  horiz-adv-x="1025" />

    
    <glyph glyph-name="shoucang3" unicode="&#58984;" d="M512.002047-17.854391l-62.554708 61.180408c-232.28846 200.949708-384.157333 336.436472-384.157333 502.446413 0 135.416156 107.175975 240.298901 245.699911 240.298901 75.902714 0 151.86785-34.997072 201.01213-91.76703 49.072649 56.769958 125.104299 91.76703 201.007013 91.76703 138.453329 0 245.699911-104.883769 245.699911-240.298901 0-166.009941-151.935388-301.496705-384.219755-502.446413L512.002047-17.854391z"  horiz-adv-x="1024" />

    
    <glyph glyph-name="delete" unicode="&#58929;" d="M512 57.142c10.89 0 19.732 9.158 19.732 20.43v490.275c0 11.273-8.842 20.43-19.732 20.43s-19.755-9.157-19.755-20.43v-490.275c0-11.272 8.842-20.43 19.755-20.43M629.877 57.187c10.935-0.428 20.138 8.37 20.475 19.688l28.665 489.69c0.427 11.272-8.077 20.745-18.99 21.195-10.935 0.405-20.137-8.415-20.475-19.688l-28.665-489.713c-0.405-11.317 8.1-20.767 18.99-21.172M848.038 710.858h-197.708v81.653c0 22.545-17.685 40.882-39.51 40.882h-197.64c-21.87 0-39.532-18.338-39.532-40.882v-81.653h-197.685c-10.913 0-19.755-9.158-19.755-20.475 0-11.272 8.843-20.407 19.755-20.407h39.577l39.488-653.67c6.367-44.73 35.415-81.72 79.065-81.72h355.793c43.65 0 71.573 37.44 79.088 81.72l39.488 653.67h39.578c10.867 0 19.755 9.135 19.755 20.408 0 11.317-8.888 20.475-19.755 20.475M413.157 792.51h197.64v-81.653h-197.64v81.653zM729.418 16.305c-2.655-21.555-17.73-40.86-39.533-40.86h-355.793c-21.87 0-36.54 19.057-39.532 40.86l-39.532 653.67h513.945l-39.555-653.67zM394.145 57.142c10.89 0.473 19.373 9.9 18.99 21.195l-29.070 489.712c-0.427 11.273-9.585 20.070-20.475 19.665-10.913-0.428-19.463-9.9-19.013-21.173l29.093-489.712c0.36-11.295 9.54-20.070 20.475-19.688z"  horiz-adv-x="1024" />

    
    <glyph glyph-name="newiconshaixuan" unicode="&#59065;" d="M938.208 896 85.792 896C38.592 896 0.16 857.6 0.16 810.368c0-22.528 8.672-43.584 24.576-59.712C25.216 749.76 25.792 748.96 26.528 748.224l299.584-299.616 0-155.328 0 0 0-26.848 0 0c0-0.096 0-0.192 0-0.32 0-19.552 15.872-35.424 35.456-35.424 19.584 0 35.456 15.872 35.456 35.424 0 0.128 0 0.224 0 0.32l0 0 0 1.12c0 0.128 0 0.256 0 0.384l0 205.728c0 2.752-1.088 5.376-3.04 7.328L78.176 796.832C77.632 797.728 76.96 798.496 76.16 799.2c-2.016 1.76-5.44 5.504-5.44 11.2 0 8.32 6.784 15.104 15.104 15.104l852.416 0c8.288 0 15.072-6.752 15.072-15.104 0-5.696-3.392-9.44-5.44-11.2-0.8-0.704-1.504-1.504-2.048-2.4l-315.744-315.712c-1.984-1.952-3.072-4.608-3.072-7.36 0-2.816 0.128-284.512 0.128-516.064 0-8.32-6.816-15.104-15.2-15.104-5.76 0-9.568 3.424-11.328 5.472-0.672 0.832-1.536 1.536-2.432 2.08l-81.344 80.192c-4.064 4-10.624 4-14.656-0.032l-35.552-35.552c-1.952-1.952-3.072-4.608-3.04-7.36s1.12-5.408 3.104-7.328l82.88-81.728c0.704-0.704 1.568-1.312 2.432-1.792C568.16-119.328 589.312-128 611.904-128c47.424 0 86.016 38.4 86.016 85.632L697.92 448.64l299.584 299.616c0.704 0.736 1.344 1.568 1.824 2.464 15.84 16.128 24.512 37.216 24.512 59.68C1023.808 857.6 985.408 896 938.208 896L938.208 896zM938.208 896M361.568 179.008c-22.4 0-40.64-18.208-40.64-40.672 0-22.4 18.24-40.672 40.64-40.672 22.432 0 40.672 18.24 40.672 40.672C402.24 160.768 384 179.008 361.568 179.008L361.568 179.008zM361.568 179.008"  horiz-adv-x="1024" />

    
    <glyph glyph-name="zhengpin" unicode="&#58894;" d="M510.303198-63.473269c-5.911992 0-11.736043 0.438703-17.586077 1.306114-17.497137 2.578252-428.708336 69.280828-428.708336 577.268612l0 129.979074c0 23.640372 11.908926 46.407935 32.656259 62.449459 20.511093 15.67837 47.469616 23.633377 75.144452 22.32986 3.073316-0.230843 11.677483-0.511253 24.72024-0.511253 24.988458 0 73.501566 1.35668 117.868285 10.411541 36.122909 7.31604 82.727711 33.078972 131.237821 72.547613 6.720843 5.396741 9.225745 6.525975 10.26604 7.012246 30.248492 16.701277 77.531634 17.318658 110.166507-0.718513 5.608198-3.068919 14.571121-9.080443 25.797509-16.779623 27.40342-18.877201 78.366667-54.004185 118.040768-62.061722 44.391702-9.054861 92.369174-10.411541 117.000274-10.411541 12.746358 0 21.280572 0.28041 23.347171 0.434306 3.668513 0.153496 5.701135 0.17728 7.78772 0.17728 25.588651 0 49.979914-7.953008 68.665245-22.430192 20.783909-16.068106 32.720615-38.83547 32.720615-62.449459l0-129.979074c0-507.839885-413.810437-574.69036-431.422296-577.295594C522.183144-63.034567 516.243171-63.473269 510.303198-63.473269zM165.634284 698.601044c-16.485223 0-32.275117-5.143912-44.455659-14.457198-12.988194-10.052584-20.481114-24.299925-20.481114-39.063315l0-129.979074c0-481.830719 382.018591-543.885446 398.287361-546.316797 7.587855-1.130234 15.290633-1.130234 22.752574 0 16.418868 2.431352 401.004119 64.668954 401.004119 546.316797l0 129.979074c0 14.738008-7.494918 28.984349-20.630013 39.115879-11.937906 9.260721-27.583299 14.352669-44.07012 14.352669l-5.131521-0.127913c-0.987331-0.104329-10.924593-0.490268-25.997174-0.490268-26.249203 0-77.445292 1.461609-125.485721 11.234383-47.706455 9.71981-100.786467 46.276025-132.519752 68.120614-9.849322 6.753821-17.673018 12.151761-22.660636 14.890904-20.896832 11.507798-50.903288 11.507798-71.863676 0-0.26542-0.179278-1.638889-1.202785-3.552991-2.739143-53.076414-43.178125-105.652568-71.703185-147.982268-80.272375-47.978271-9.772774-99.74857-11.234383-126.317956-11.234383-15.222679 0-25.138956 0.385738-27.676635 0.618181L165.634284 698.601044zM295.710292 584.425855l432.053867 0c12.898255-1.22417 20.030419-7.365606 21.493427-18.415514-1.463008-12.278075-8.595172-19.058478-21.493427-20.262662L547.20298 545.747679l0-121.562181 176.262094 0c11.43125 0 17.881876-6.161223 19.345883-18.420511-1.464007-12.277676-7.914634-18.414515-19.345883-18.414515L547.20298 387.350472l0-152.877549 202.054607 0c11.436246 0 17.882875-5.533248 19.346883-16.571764-1.464007-11.056504-7.910637-16.581758-19.346883-16.581758L276.361411 201.319401c-14.361263 0-21.492828 5.525254-21.492828 16.581758 0 11.038516 7.131565 16.571764 21.492828 16.571764l53.739365 0L330.100776 472.076228c1.404448 11.049508 9.280708 17.192344 23.641371 18.414515 12.901253-1.222171 20.030819-7.365007 21.496825-18.414515l0-237.603305 126.821615 0L502.060587 545.747479 295.710292 545.747479c-12.899654 1.204184-20.093776 7.984586-21.498824 20.262662C275.616316 577.060249 282.810439 583.201685 295.710292 584.425855z"  horiz-adv-x="1024" />

    
    <glyph glyph-name="iconzhuye" unicode="&#58901;" d="M999.766063 325.842439c-6.239098 0-12.477172 2.385327-17.242709 7.144724L512.073678 803.436838 41.62298 332.987163c-9.523911-9.524934-24.955368-9.524934-34.479279 0-9.523911 9.523911-9.523911 24.955368 0 34.479279L494.837108 855.158826c9.523911 9.523911 24.955368 9.523911 34.479279 0l487.687268-487.693408c9.530051-9.523911 9.530051-24.955368 0-34.479279C1012.244258 328.227766 1006.005161 325.842439 999.766063 325.842439L999.766063 325.842439zM999.766063 325.842439M804.692179-88.694809 633.999588-88.694809c-13.480013 0-24.387433 10.907421-24.387433 24.38641 0 13.473873 10.907421 24.382317 24.387433 24.382317l170.69259 0c26.885324 0 48.768727 21.883403 48.768727 48.768727L853.460906 277.072689c0 13.480013 10.903328 24.387433 24.382317 24.387433 13.477966 0 24.387433-10.907421 24.387433-24.387433L902.230656 8.841621C902.229632-44.949492 858.485339-88.694809 804.692179-88.694809L804.692179-88.694809zM390.154931-88.694809 219.462341-88.694809c-53.79316 0-97.538477 43.745317-97.538477 97.53643L121.923864 472.148619c0 13.478989 10.902304 24.38641 24.382317 24.38641 13.478989 0 24.38641-10.907421 24.38641-24.38641L170.69259 8.841621c0-26.885324 21.884426-48.768727 48.76975-48.768727l146.30618 0L365.768521 179.536258c0 13.478989 10.907421 24.38641 24.38641 24.38641l243.844657 0c13.478989 0 24.38641-10.907421 24.38641-24.38641 0-13.480013-10.907421-24.382317-24.38641-24.382317L414.537248 155.153942l0-219.462341C414.537248-77.787388 403.628804-88.694809 390.154931-88.694809L390.154931-88.694809zM390.154931-88.694809"  horiz-adv-x="1040" />

    
    <glyph glyph-name="dizhi1" unicode="&#58893;" d="M511.425901-59.659138C481.601958-59.659138 168.221882 292.843578 168.221882 482.383741 168.221882 671.919039 321.866277 825.587761 511.425901 825.587761s343.20402-153.645612 343.20402-343.20402C854.629921 292.824117 539.724591-59.659138 511.425901-59.659138L511.425901-59.659138zM511.425901 781.30188C346.33602 781.30188 212.507762 647.455378 212.507762 482.383741c0-165.114207 290.551136-497.761864 298.918139-497.761864 3.853273 0 298.923004 332.647657 298.923004 497.761864C810.348905 647.455378 676.520648 781.30188 511.425901 781.30188L511.425901 781.30188zM511.425901 360.600611c-67.243749 0-121.783131 54.534516-121.783131 121.783131 0 67.243749 54.539382 121.783131 121.783131 121.783131 67.248614 0 121.783131-54.539382 121.783131-121.783131C633.209032 415.135127 578.674516 360.600611 511.425901 360.600611L511.425901 360.600611zM511.425901 559.880992c-42.799549 0-77.49725-34.717163-77.49725-77.49725 0-42.822659 34.697702-77.49725 77.49725-77.49725 42.803198 0 77.49725 34.674592 77.49725 77.49725C588.923151 525.163829 554.229099 559.880992 511.425901 559.880992L511.425901 559.880992zM511.425901 559.880992"  horiz-adv-x="1024" />

    
    <glyph glyph-name="daiqianshou" unicode="&#58895;" d="M937.798732 385.058099c11.761881 0 21.330818-9.552563 21.330818-21.295002 0-11.803837-9.567913-21.295002-21.330818-21.295002L660.502196 342.468095 415.629115 124.770957c-3.169179-2.798742-4.692882-7.848759-4.449335-12.95915 0.183172-2.676969 0.792039-5.17179 1.950422-7.179516 0.913812-1.460258 2.13257-2.738367 3.778046-3.467985 4.50971-2.1295 12.006452-1.885953 23.219841 2.494821l160.64884 89.864704c10.238179 5.719258 23.219841 2.069125 28.948309-8.15268 5.789866-10.282181 2.13257-23.242354-8.167007-28.961612l-161.562653-90.351797-0.853437-0.487094-1.462305-0.608867c-24.438599-9.978259-44.12394-9.126868-58.811454-2.251274-9.934257 4.684696-17.369599 11.92561-22.366404 20.503986-4.753257 8.092305-7.313569 17.279548-7.800663 26.588565-0.853437 17.157775 5.606695 35.166941 18.588357 46.727231l250.967892 223.11145 6.094812 5.415336 8.04421 0L937.798732 385.057075zM389.970736 113.332441c11.761881 0 21.330818-9.491165 21.330818-21.295002 0-11.742439-9.567913-21.295002-21.330818-21.295002L169.414481 70.742437c-30.228465 0-49.974182-12.716626-58.262962-28.839839-2.925632-5.658883-4.449335-11.620665-4.50971-17.523095-0.061398-5.719258 1.218758-11.378142 3.900843-16.610306 7.618515-14.480806 26.693965-25.675776 58.871829-25.675776l340.068186 0 182.406376 124.363426 5.54632 3.771907 6.460132 0 233.842863 0c11.82328 0 21.330818-9.552563 21.330818-21.295002 0-11.803837-9.507538-21.295002-21.330818-21.295002L710.416002 67.638749l-182.466752-124.423801-5.484921-3.711532-6.520507 0L169.414481-60.496583c-50.339502 0-82.09167 21.173229-96.474238 48.613184-6.094812 11.56029-8.959046 24.155143-8.837272 36.810371 0.183172 12.473079 3.290953 24.946159 9.202593 36.44505 14.992459 29.021987 47.841611 51.960419 96.108918 51.960419L389.970736 113.332441zM194.461947 200.703347c12.737092 0 23.098068-10.282181 23.098068-22.998807 0-12.716626-10.360975-23.059182-23.098068-23.059182l-62.22418 0c-18.831904 0-36.261878 7.848759-48.815799 20.382213-12.493545 12.473079-20.355607 29.752628-20.355607 48.734958L63.066361 459.286684c0 19.043728 7.800663 36.323277 20.294209 48.796356 12.554944 12.533454 29.863145 20.260439 48.877197 20.260439 309.840744 0 222.87302 0 544.1707 0 19.014052 0 36.261878-7.788383 48.755424-20.321838 12.615319-12.533454 20.415982-29.874401 20.415982-48.734958l0-84.328617-46.134737-5.901407 0 90.230024c0 6.206352-2.620687 11.985986-6.886851 16.184611-4.204765 4.198625-9.934257 6.814196-16.149818 6.814196L427.390997 482.28549l0-281.582143 34.43323 0-55.459103-46.057989-89.283466 0c-12.676717 0-23.036669 10.343579-23.036669 23.059182 0 12.716626 10.360975 22.998807 23.036669 22.998807l64.174602 0L381.25626 482.28549 132.237767 482.28549c-6.27696 0-12.066827-2.555196-16.271592-6.753821-4.14439-4.198625-6.765077-9.917884-6.765077-16.244986l0-235.523131c0-6.266727 2.620687-11.985986 6.825452-16.184611 4.266164-4.198625 10.05603-6.875594 16.211217-6.875594L194.461947 200.703347zM696.580902 697.426409c10.05603 49.587372-24.133653 84.450391-73.072249 84.450391-75.997881 0-149.557224-73.863265-186.42797-138.966005-6.460132-11.498892-9.872858-20.078291-9.872858-33.220612l128.531352 0C615.037724 609.690182 683.234943 631.654426 696.580902 697.426409L696.580902 697.426409zM105.971543 617.782487C25.647123 699.190589 68.369134 827.509093 185.137581 827.509093c90.319052 0 170.156378-77.027327 219.216747-151.134139 49.060369 74.106812 128.836297 151.134139 219.155349 151.134139 77.703733 0 133.467781-61.390185 117.744681-138.966005-5.668093-27.805276-19.136849-51.04763-37.420261-69.726038-37.115316-37.905308-82.45699-54.759161-133.589554-54.759161L404.354328 564.057889 230.175333 564.057889C185.381128 564.057889 137.357368 585.961758 105.971543 617.782487L105.971543 617.782487zM138.454352 649.664615c35.286668-35.715433 72.523757-39.97341 119.93865-39.97341l123.106806 0c0 13.142322-3.412726 21.720697-9.934257 33.220612C334.694805 708.012512 261.195837 781.8768 185.137581 781.8768 107.128903 781.8768 87.931678 700.894394 138.454352 649.664615L138.454352 649.664615z"  horiz-adv-x="1024" />

    
    <glyph glyph-name="aui-icon-right" unicode="&#58920;" d="M673.714 400.781q-85.098 85.098-341.118 341.118-5.091 5.819-5.091 10.91 0 5.091 5.091 10.183 5.091 5.091 10.183 5.091 5.091 0 10.91-5.091 119.282-119.282 357.119-357.119 5.091-5.091 5.091-10.91 0-5.091-5.091-10.183-0.727-0.727-1.455-1.455-88.734-88.734-355.665-354.937-5.819-5.091-10.91-5.091-5.091 0-10.183 5.091-5.091 5.091-5.091 10.183 0 5.091 5.091 10.91 113.464 113.464 341.118 341.118 5.091 5.091 0 10.183z"  horiz-adv-x="1024" />

    
    <glyph glyph-name="wenti-m" unicode="&#58903;" d="M512 830.016c-245.92 0-446.016-200.096-446.016-446.016 0-245.952 200.064-446.016 446.016-446.016 245.952 0 446.016 200.064 446.016 446.016-0 245.92-200.064 446.016-446.016 446.016zM512 1.984c-210.656 0-382.016 171.392-382.016 382.016 0 210.656 171.36 382.016 382.016 382.016 210.624 0 382.016-171.36 382.016-382.016-0-210.624-171.392-382.016-382.016-382.016zM512 640.8c-77.216 0-140.032-62.272-140.032-138.816 0-17.664 14.336-32 32-32s32 14.336 32 32c0 41.952 33.376 74.816 76.032 74.816 41.952 0 76.032-34.368 76.032-76.64 0-15.968-22.848-38.784-43.008-58.944-30.464-30.432-65.024-64.96-65.024-111.232v-45.696c0-17.696 14.336-32 32-32s32 14.304 32 32v45.696c0 19.744 23.52 43.264 46.272 65.984 28.928 28.928 61.76 61.728 61.76 104.192 0 77.568-62.816 140.64-140.032 140.64zM464 142.080c0-26.51 21.49-48 48-48s48 21.49 48 48c0 26.51-21.49 48-48 48-26.51 0-48-21.49-48-48z"  horiz-adv-x="1024" />

    
    <glyph glyph-name="xinxi" unicode="&#58927;" d="M512.670266-63.469288c-246.343571 0-446.760137 200.63146-446.760137 447.240067S266.325671 831.020056 512.670266 831.020056s446.760137-200.641693 446.760137-447.2503S759.013837-63.469288 512.670266-63.469288zM512.670266 765.570415c-210.29147 0-381.381104-171.283038-381.381104-381.800659S302.378795 1.980353 512.670266 1.980353s381.381104 171.272805 381.381104 381.790426S722.961736 765.570415 512.670266 765.570415zM447.290209 578.82829a63.891 63.959 0 1 0 130.760113 0 63.891 63.959 0 1 0-130.760113 0ZM512.197498 75.781196c-30.093389 0-54.235229 24.416086-54.235229 54.541197L457.96227 413.937846c0 30.126134 24.14184 54.541197 54.235229 54.541197 30.093389 0 54.235229-24.416086 54.235229-54.541197l0-283.615453C566.432727 100.197282 542.290887 75.781196 512.197498 75.781196z"  horiz-adv-x="1024" />

    
    <glyph glyph-name="iconfontzhizuobiaozhun48" unicode="&#58928;" d="M815.491641 276.882354c-9.841136 0-17.84646-8.005324-17.84646-17.862833l0-178.503487c0-9.859555-8.005324-17.862833-17.84646-17.862833l-535.546276 0c-9.858532 0-17.86488 8.003278-17.86488 17.862833l0 178.503487c0 9.857509-7.987928 17.862833-17.84646 17.862833-9.858532 0-17.847483-8.005324-17.847483-17.862833l0-178.503487c0-29.53978 24.016996-53.5578 53.558823-53.5578l535.546276 0c29.523407 0 53.558823 24.01802 53.558823 53.5578l0 178.503487C833.35652 268.877029 825.350173 276.882354 815.491641 276.882354L815.491641 276.882354zM815.491641 276.882354M868.874455 546.001651c-0.227174 7.377014-2.044566 14.683421-5.418406 21.675672l0.122797 0.141216c0 0-84.568071 144.486742-85.178985 145.605216-7.813966 15.069207-16.222473 27.618011-52.719712 27.618011l-427.363368 0c-29.977755 0-43.542702-12.373819-54.694693-30.973432l-81.770352-139.629107-0.122797-0.348947 0-0.280386c-4.107551-7.690146-6.309706-15.697517-6.642281-24.016996-0.052189-0.177032-0.122797-0.384763-0.122797-0.697895l0-124.772748c0-59.398832 46.041616-107.745956 102.640682-107.745956 34.015721 0 65.61951 17.585517 84.796268 47.089481 19.191084-29.503964 50.79692-47.089481 84.793198-47.089481 34.015721 0 65.61951 17.585517 84.811618 47.089481 19.175735-29.503964 50.780547-47.089481 84.777849-47.089481 34.015721 0 65.61951 17.585517 84.811618 47.089481 19.193131-29.503964 50.7785-47.089481 84.794222-47.089481 56.599066 0 102.641705 48.347125 102.641705 107.745956l0 124.772748C869.04944 545.408133 868.979856 545.652703 868.874455 546.001651L868.874455 546.001651zM275.697621 690.804594c5.54018 9.125845 12.095479 12.831236 22.636556 12.831236l427.363368 0c10.837836 0 15.609513-1.086751 22.636556-12.795421 12.917194-21.499663 49.451272-82.400708 55.358819-92.260264l-583.336722 0C226.247372 608.439702 262.727215 669.550525 275.697621 690.804594L275.697621 690.804594zM833.35652 420.323277c0-38.768979-30.030967-70.340021-66.948785-70.340021-36.916794 0-66.946738 31.572066-66.946738 70.340021L699.460997 438.117548c0 10.31288-7.988951 18.700921-17.829064 18.700921-9.858532 0-17.863856-8.388041-17.863856-18.700921l0-17.794271c0-38.768979-30.030967-70.340021-66.930365-70.340021-36.917818 0-66.946738 31.572066-66.946738 70.340021L529.890974 438.117548c0 10.31288-8.006348 18.700921-17.847483 18.700921-9.859555 0-17.86488-8.388041-17.86488-18.700921l0-17.794271c0-38.768979-30.029944-70.340021-66.946738-70.340021-36.901445 0-66.930365 31.572066-66.930365 70.340021L360.301508 438.117548c0 10.31288-8.005324 18.700921-17.84646 18.700921s-17.84646-8.388041-17.84646-18.700921l0-17.794271c0-38.768979-30.04734-70.340021-66.930365-70.340021-36.916794 0-66.946738 31.572066-66.946738 70.340021l0 124.5599c0.348947 9.16166 7.725962 16.327874 16.779152 16.327874l609.101525 0c9.054213 0 16.431228-7.166213 16.780175-16.293081l0-124.594693L833.35652 420.323277zM833.35652 420.323277"  horiz-adv-x="1024" />

    
    <glyph glyph-name="scan" unicode="&#58937;" d="M1157.063 429.693h-1115.219c-23.098 0-41.844-18.746-41.844-41.844 0-23.098 18.746-41.844 41.844-41.844h1115.219c23.098 0 41.844 18.746 41.844 41.844-0 23.098-18.746 41.844-41.844 41.844v0zM434.003-44.313h-169.049c-53.727 0-97.58 43.852-97.58 97.58v161.517c0 23.098-18.746 41.844-41.844 41.844-23.098 0-41.844-18.746-41.844-41.844v-161.517c0-99.923 81.177-181.1 181.267-181.1h169.049c23.098 0 41.844 18.746 41.844 41.844-0 22.93-18.746 41.676-41.844 41.676v0zM1073.376 256.628c-23.098 0-41.844-18.746-41.844-41.844v-161.517c0-53.727-43.852-97.58-97.58-97.58l-169.049 0c-23.098 0-41.844-18.746-41.844-41.844s18.746-41.844 41.844-41.844h169.049c99.923 0 181.267 81.344 181.267 181.267v161.517c0 23.098-18.746 41.844-41.844 41.844v0zM763.23 812.313h169.049c53.727 0 97.58-43.852 97.58-97.58v-161.517c0-23.098 18.746-41.844 41.844-41.844 23.098 0 41.844 18.746 41.844 41.844l-0 161.517c0 99.923-81.344 181.267-181.267 181.267h-169.049c-23.098 0-41.844-18.746-41.844-41.844 0.167-23.098 18.746-41.844 41.844-41.844v0zM123.857 511.54c23.098 0 41.844 18.746 41.844 41.844v161.349c0 53.727 43.852 97.58 97.58 97.58h169.049c23.098 0 41.844 18.746 41.844 41.844 0 23.098-18.746 41.844-41.844 41.844h-169.049c-99.923 0-181.267-81.344-181.267-181.267v-161.517c0-23.098 18.746-41.676 41.844-41.676v0z"  horiz-adv-x="1199" />

    
    <glyph glyph-name="nan" unicode="&#58918;" d="M941.269787-44.966888c0.174985 0.264013 0.322341 0.540306 0.490164 0.807389 0.487094 0.774643 0.966001 1.552356 1.396813 2.363837 0.194428 0.366344 0.355087 0.743944 0.537236 1.115404 0.360204 0.734734 0.721431 1.467421 1.034563 2.227738 0.169869 0.413416 0.303922 0.837064 0.458441 1.254573 0.273223 0.735757 0.550539 1.467421 0.777713 2.223644 0.140193 0.465604 0.239454 0.938372 0.361227 1.408069 0.186242 0.719384 0.384763 1.432629 0.529049 2.167363 0.118704 0.602727 0.187265 1.210571 0.277316 1.817392 0.090051 0.610914 0.204661 1.214664 0.265036 1.834788 0.122797 1.242294 0.188288 2.489704 0.188288 3.737114L947.585633 220.166631c0 20.965497-16.96437 37.929868-37.929868 37.929868-20.965497 0-37.929868-16.96437-37.929868-37.929868l0-152.609747L692.298366 246.984417c-1.605567 1.605567-3.334955 3.00238-5.132904 4.260024 53.982472 61.436234 86.772272 141.931546 86.772272 229.952252 0 192.281281-156.462494 348.743776-348.743776 348.743776-192.31812 0-348.780615-156.462494-348.780615-348.743776 0-192.31812 156.462494-348.780615 348.780615-348.780615 77.68429 0 149.514245 25.548886 207.550033 68.673056 1.609661-2.75781 3.553942-5.375427 5.918803-7.740288l179.427532-179.427532L665.48058 13.921313c-20.965497 0-37.929868-16.96437-37.929868-37.929868 0-20.965497 16.965393-37.929868 37.929868-37.929868l244.176209 0c1.24741 0 2.493797 0.065492 3.737114 0.188288 0.620124 0.060375 1.223874 0.174985 1.834788 0.265036 0.606821 0.090051 1.214664 0.157589 1.817392 0.277316 0.734734 0.144286 1.449002 0.342808 2.167363 0.530073 0.469698 0.121773 0.942465 0.221034 1.407046 0.361227 0.756223 0.228197 1.488911 0.505513 2.223644 0.777713 0.418532 0.154519 0.841158 0.288572 1.254573 0.458441 0.760317 0.313132 1.493004 0.674359 2.227738 1.034563 0.37146 0.182149 0.74906 0.341784 1.115404 0.536212 0.810459 0.430812 1.589195 0.910743 2.363837 1.396813 0.267083 0.167822 0.543376 0.315178 0.807389 0.490164 1.02126 0.677429 2.006703 1.401929 2.955308 2.172479 0.00921 0.007163 0.01842 0.013303 0.026606 0.020466 2.00875 1.636267 3.845585 3.473101 5.481851 5.481851 0.007163 0.00921 0.013303 0.01842 0.020466 0.026606C939.867858-46.973592 940.592358-45.987125 941.269787-44.966888zM425.193958 208.275813c-150.498666 0-272.919856 122.42119-272.919856 272.919856 0 150.461827 122.42119 272.883017 272.919856 272.883017 150.461827 0 272.883017-122.42119 272.883017-272.883017C698.076976 330.698027 575.654762 208.275813 425.193958 208.275813z"  horiz-adv-x="1024" />

    
    <glyph glyph-name="nv" unicode="&#58921;" d="M844.322781 95.369324l96.172363 96.172363c14.956643 14.956643 14.956643 39.187511 0 54.144154-14.956643 14.956643-39.187511 14.956643-54.144154 0l-96.172363-96.172363-96.172363 96.172363c-1.620917 1.620917-3.368724 3.032056-5.184069 4.301979 54.496172 62.018495 87.596034 143.276171 87.596034 232.128825 0 194.102766-157.945265 352.048031-352.08487 352.048031-194.102766 0-352.048031-157.945265-352.048031-352.048031 0-194.140629 157.944242-352.08487 352.048031-352.08487 78.438467 0 150.960177 25.792433 209.550597 69.327972 1.626034-2.785439 3.589758-5.429663 5.978155-7.818059l96.172363-96.172363-96.172363-96.172363c-14.956643-14.956643-14.956643-39.187511 0-54.144154 7.478322-7.478322 17.275455-11.217483 27.071565-11.217483 9.797134 0 19.593244 3.739161 27.071565 11.217483l96.172363 96.172363 96.172363-96.172363c7.478322-7.478322 17.275455-11.217483 27.071565-11.217483 9.797134 0 19.593244 3.739161 27.071565 11.217483 14.956643 14.956643 14.956643 39.187511 0 54.144154L844.322781 95.369324zM424.333358 206.611917c-151.887292 0-275.468912 123.58162-275.468912 275.505751 0 151.887292 123.58162 275.468912 275.468912 275.468912 151.924131 0 275.505751-123.58162 275.505751-275.468912C699.839109 330.192513 576.258513 206.611917 424.333358 206.611917z"  horiz-adv-x="1024" />

    
    <glyph glyph-name="daifukuandingdan" unicode="&#58902;" d="M19.187528 500.736921M920.602249 549.161125c-14.096437 0-25.081937 0-39.976575 0 0 9.43003 0 18.409794 0 27.389557-0.005117 69.044401 0.086983 138.083686-0.051167 207.128087-0.056283 28.827342-16.255674 46.183101-44.878349 46.213801-239.516634 0.240484-479.033268 0.225134-718.549903 0.020467-29.200859-0.025583-45.917034-16.721291-45.937501-45.927267-0.19955-271.055814-0.179084-542.111627-0.0307-813.167441 0.01535-28.837576 21.326298-47.257603 54.29303-47.329236 86.942527-0.194434 173.885055-0.071633 260.827582-0.071633 9.286764 0 18.573527 0 29.732994 0 0-12.090701 0-22.585 0-35.463669-8.350412-0.588418-16.537091-1.652686-24.72377-1.662919-99.729096-0.117684-199.453076-0.179084-299.182172-0.0307-40.979443 0.0614-59.772988 18.271643-59.793454 58.795703C32.173647 233.150212 32.173647 521.254784 32.332264 809.359356 32.357847 850.164833 51.161625 868.789527 91.798251 868.804877 349.218128 868.92256 606.632889 868.92256 864.047649 868.794643c32.843931-0.01535 55.428931-16.552441 55.976415-46.807335C921.640933 731.872443 920.602249 641.711528 920.602249 549.161125zM506.842392 142.400879c-4.205906 140.989957 116.460621 256.662609 259.967981 252.978604 137.914835-3.540739 248.752231-117.013221 247.70843-254.007055-1.100085-143.67621-111.267196-253.669355-254.99969-255.224824C623.763514-115.315765 501.623385-0.840414 506.842392 142.400879zM760.163814 359.16878c-125.2306-7.301494-216.404617-93.901204-216.747434-218.251736-0.342817-125.378984 97.180992-215.872483 216.732084-216.527417 116.655054-0.644701 217.591685 96.086024 216.972568 216.634867C976.50703 261.256104 883.813361 352.967371 760.163814 359.16878zM253.193504 579.497886c0 12.008834 0 21.223964 0 32.603448 158.780633 0 317.387298 0 477.825733 0 0-10.294748 0-20.681597 0-32.603448C571.757638 579.497886 413.800789 579.497886 253.193504 579.497886zM254.211722 393.32258c75.32256 0 148.992435 0 224.320112 0 0-10.698966 0-20.49228 0-34.10775-21.832849 0-44.453665 0-67.069365 0-43.348463 0-86.696927-0.025583-130.050507 0.010233C250.962634 359.24553 250.962634 359.286464 254.211722 393.32258zM384.610163 140.159776c-43.793614 0-86.113626 0-128.228971 0-8.667646 33.80075-6.92286 36.297687 25.12287 36.394903 25.496387 0.07675 50.992775 0.07675 76.489162 0C389.36867 176.462579 389.36867 176.411413 384.610163 140.159776zM761.949533 269.422315c0-33.493749 0.250717-64.838495-0.0921-96.178124-0.225134-20.451347 6.58516-31.329396 29.732994-30.147444 31.262879 1.596402 62.669025 0.393984 93.594204 0.393984 8.565313-35.750202 7.112177-37.689422-27.287223-37.745705-36.55352-0.056283-73.117274 0.624234-109.650327-0.271184-16.798041-0.409334-24.513986 3.724939-24.053485 22.498016 1.135902 46.556618 0.373517 93.159286 0.373517 141.450457C737.788597 269.422315 748.277779 269.422315 761.949533 269.422315z"  horiz-adv-x="1024" />

    
    <glyph glyph-name="shangjia1" unicode="&#58947;" d="M436.608 549.44l0-285.44c0-17.6 14.4-32 32-32l93.44 0c17.6 0 32 14.4 32 32l0 285.44 132.864 0c12.928 12.992 12.928 34.048 0 47.04L538.752 802.816c-12.928 12.992-33.984 12.992-46.912 0L303.808 596.48c-12.992-12.992-12.992-34.048 0-47.04L436.608 549.44zM849.152 570.688c-0.384-18.944-5.888-37.76-16.256-54.464 40.128-2.944 72.064-38.976 72.384-79.296l-52.544-336.128c-16.32-89.28-25.664-89.28-77.632-89.28L248.512 11.52c-51.968 0-61.312 0-77.504 88.512L118.72 432.64c0 44.352 31.68 80.384 71.616 83.584-10.304 16.64-15.744 35.456-16.128 54.4C111.04 559.616 62.592 501.76 62.848 428.288l52.8-337.536c22.4-122.56 57.728-135.296 132.864-135.296l526.656 0c75.136 0 110.464 12.8 132.992 136l52.992 341.184C961.152 502.336 912.512 559.872 849.152 570.688z"  horiz-adv-x="1024" />

    
    <glyph glyph-name="shoudaodelibao" unicode="&#58959;" d="M885.717563 627.171322 606.520747 627.171322c3.665483 1.342578 7.303336 2.717901 10.885931 4.145413 34.240849 13.641695 60.147892 29.344329 75.115791 48.891524 22.052249 28.79993 17.242709 62.374606-14.640442 91.944062-31.262004 28.994358-64.787562 32.54216-93.389994 11.520381-20.023032-14.716166-35.83823-39.950897-49.205679-73.056899-2.869351-7.105838-5.535063-14.404058-8.025791-21.800515-6.77531 22.113647-16.487509 45.342698-27.978215 65.722864C456.346469 830.687482 394.534681 858.718909 332.400552 801.092443c-62.980403-58.412364-39.61423-115.579365 35.082006-154.847717 12.901845-6.782473 28.089755-13.269211 43.770899-19.073404L138.282437 627.171322c-37.559431 0-68.013023-30.413684-68.013023-67.949578l0-135.934972c0-37.518498 30.463826-67.949578 68.013023-67.949578l22.598694 0 0-324.757478c0-51.614541 39.114856-94.321202 88.346117-94.321202l525.545504 0c49.189306 0 88.347141 42.678008 88.347141 94.321202L863.119893 355.337193l22.598694 0c37.559431 0 68.013023 30.413684 68.013023 67.949578L953.73161 559.221744C953.730587 596.740242 923.266761 627.171322 885.717563 627.171322zM577.297169 693.653479c10.485819 25.970488 22.38687 44.958958 34.025954 53.513798 10.301623 7.571443 19.793812 6.566556 35.750225-8.231475 15.517415-14.391778 16.591887-21.892613 9.477862-31.182186-8.741082-11.414981-28.664853-23.49204-55.912427-34.347273-11.022031-4.391007-22.690792-8.376785-34.546817-11.946077C569.414641 672.509926 573.147662 683.377438 577.297169 693.653479zM363.209232 767.873878c35.207873 32.654724 66.00632 18.687618 96.608292-35.58752 12.707416-22.537296 23.080671-49.65798 28.515451-72.880891 0.676405-2.888793 1.25048-5.630231 1.727341-8.194636-7.556093 1.632173-16.474206 3.784186-25.499767 6.274914-27.798113 7.671727-54.5545 17.588587-75.995835 28.860305C337.64602 713.114716 328.443427 735.629499 363.209232 767.873878zM206.185966 30.579715 206.185966 355.337193l215.202317 0 0-373.771799-172.161035 0C225.949079-18.435629 206.185966 3.141806 206.185966 30.579715zM537.888624 355.337193l0-373.771799-71.194482 0L466.694141 355.337193 537.888624 355.337193zM817.813011 30.579715c0-27.450189-19.785625-49.015344-43.041282-49.015344L583.194482-18.435629 583.194482 355.337193l234.618529 0L817.813011 30.579715zM908.424728 423.286772c0-12.500709-10.156314-22.64372-22.707165-22.64372L138.282437 400.643052c-12.538571 0-22.707165 10.158361-22.707165 22.64372L115.575272 559.221744c0 12.500709 10.156314 22.64372 22.707165 22.64372l747.435127 0c12.538571 0 22.707165-10.158361 22.707165-22.64372L908.424728 423.286772z"  horiz-adv-x="1024" />

    
    <glyph glyph-name="Voice" unicode="&#58949;" d="M512-128c-282.773 0-512 229.227-512 512s229.227 512 512 512c282.773 0 512-229.227 512-512 0-282.773-229.227-512-512-512zM512 853.333c-259.2 0-469.333-210.112-469.333-469.333 0-259.2 210.133-469.333 469.333-469.333 259.2 0 469.333 210.133 469.333 469.333 0 259.221-210.133 469.333-469.333 469.333zM580.907 107.84c63.339 74.453 101.76 170.752 101.76 276.16 0 105.429-38.421 201.728-101.76 276.181l32.491 27.605c69.675-81.899 111.936-187.819 111.936-303.787 0-115.947-42.261-221.888-111.936-303.765l-32.491 27.605zM434.688 232.107c34.837 40.96 55.979 93.931 55.979 151.893 0 57.984-21.141 110.955-55.979 151.893l32.491 27.627c41.173-48.405 66.155-110.997 66.155-179.52 0-68.501-24.981-131.115-66.155-179.499l-32.491 27.605zM304.555 342.741c9.493 11.157 15.445 25.451 15.445 41.259 0 15.829-5.952 30.101-15.445 41.28l32.363 27.499c15.829-18.603 25.749-42.411 25.749-68.779 0-26.347-9.92-50.155-25.749-68.757l-32.363 27.499z"  horiz-adv-x="1024" />

    
    <glyph glyph-name="vip" unicode="&#59204;" d="M24.234979 665.391081 1547.192392 665.391081C1570.120769 665.389488 1570.120769 681.122931 1570.120769 681.122931L1570.120769 825.405141C1570.120769 864.230242 1534.350708 896 1490.636933 896L79.485633 896C35.771855 896 0 864.23024 0 825.405141L0 690.857899C0 665.391081 24.234979 665.391081 24.234979 665.391081L24.234979 665.391081ZM1537.015965 515.175755 25.022889 515.175755C0 515.175755 0 497.526241 0 497.526241L0-48.138895C0-86.967183 35.770061-118.733756 79.485633-118.733756L1490.647702-118.733756C1534.361477-118.733756 1570.133333-86.967183 1570.133333-48.138895L1570.133333 486.399655C1570.13333 486.399652 1570.13333 515.175755 1537.015965 515.175755L1537.015965 515.175755ZM241.136509 294.456429C241.136509 280.688469 228.45456 269.413635 212.953005 269.413635L110.445669 269.413635C94.940525 269.413635 82.25319 280.693255 82.25319 294.456429L82.25319 381.650313C82.25319 395.418269 94.940525 406.683542 110.445669 406.683542L212.953005 406.683542C228.454561 406.683542 241.136509 395.418269 241.136509 381.650313L241.136509 294.456429 241.136509 294.456429ZM458.562116 294.456429C458.562116 280.688469 445.878374 269.413635 430.375025 269.413635L327.873072 269.413635C312.369722 269.413635 299.682389 280.693255 299.682389 294.456429L299.682389 381.650313C299.682389 395.418269 312.371517 406.683542 327.873072 406.683542L430.375025 406.683542C445.878374 406.683542 458.562116 395.418269 458.562116 381.650313L458.562116 294.456429 458.562116 294.456429ZM873.48225-31.170051 797.821303-31.170051 690.109092 247.900102 762.32405 247.900102 830.276396 50.621536C833.65418 40.891348 835.75408 31.706334 836.563528 23.058521L837.782187 23.058521C838.862647 31.945445 841.15997 41.371163 844.679543 51.343647L912.63189 247.900102 982.615931 247.900102 873.48225-31.170051 873.48225-31.170051ZM1156.413911 201.598826 1129.436501 201.598826 1129.436501 15.131225 1156.413911 15.131225 1156.413911-31.170051 1035.922831-31.170051 1035.922831 15.131225 1062.494618 15.131225 1062.494618 201.598826 1035.922831 201.598826 1035.922831 247.900102 1156.413911 247.900102 1156.413911 201.598826 1156.413911 201.598826ZM1433.566365 90.887673C1409.966742 73.652617 1380.447918 65.396944 1345.022454 66.117461L1310.537462 66.117461 1310.537462-31.170051 1243.597377-31.170051 1243.597373 247.900102 1351.715205 247.900102C1429.876289 247.900102 1468.961314 218.472028 1468.961314 159.620663 1468.961318 131.035849 1457.160605 108.122726 1433.566365 90.887673L1433.566365 90.887673ZM1340.151409 201.780552 1310.537462 201.780552 1310.537462 111.69822 1339.544774 111.69822C1378.897224 111.69822 1398.573449 126.892868 1398.573449 157.28057 1398.573449 186.942973 1379.100034 201.780552 1340.151409 201.780552L1340.151409 201.780552Z"  horiz-adv-x="1571" />

    
    <glyph glyph-name="tuwensucai" unicode="&#59009;" d="M497.666877 605.25422 497.666877 521.935423C497.666877 515.723188 502.696543 510.708492 508.893808 510.708492 515.091075 510.708492 520.120739 515.723188 520.120739 521.935423L520.120739 605.25422C540.853139 610.328793 556.316366 628.920591 556.316366 651.179853 556.316366 677.331118 535.030104 698.60241 508.893808 698.60241 482.727575 698.60241 461.471252 677.331118 461.471252 651.179853 461.471252 628.920591 476.919509 610.328793 497.666877 605.25422L497.666877 605.25422ZM508.893808 676.148547C522.650541 676.148547 533.862504 664.951555 533.862504 651.179853 533.862504 637.408151 522.650541 626.211158 508.893808 626.211158 495.122106 626.211158 483.925114 637.408151 483.925114 651.179853 483.925114 664.951555 495.122106 676.148547 508.893808 676.148547L508.893808 676.148547ZM854.877886 555.631184C853.006731 557.951418 850.327236 559.448342 847.333388 559.777665L833.801194 561.289558 833.801194 584.911021C833.801194 591.108287 828.771529 596.137952 822.574263 596.137952L542.859017 596.137952C536.661752 596.137952 531.647056 591.108287 531.647056 584.911021 531.647056 578.698785 536.661752 573.68409 542.859017 573.68409L811.347331 573.68409 811.347331 208.41963 612.031882 407.750049C607.660864 412.136036 600.550474 412.136036 596.134548 407.750049L524.880959 336.526398 450.244321 412.330637C448.08875 414.546084 445.484102 415.62387 441.96633 415.683747 438.867698 415.593931 435.918757 414.231731 433.867971 411.911497L206.365439 155.907531 206.365439 573.68409 474.898661 573.68409C476.365648 573.68409 477.757787 573.998444 479.06011 574.522368 479.524157 574.701999 479.868449 575.016353 480.302557 575.270829 481.095927 575.704937 481.859358 576.154015 482.518005 576.752784 482.922175 577.141985 483.191622 577.606032 483.550883 578.070078 484.059837 578.698785 484.568792 579.327494 484.913084 580.075956 485.182531 580.629817 485.332222 581.228587 485.511854 581.827357 485.646577 582.381219 485.945962 582.860235 486.005839 583.429066 486.035777 583.683543 485.945962 583.908082 485.9759 584.162559 485.9759 584.417036 486.110624 584.641574 486.110624 584.911021 486.110624 585.434945 485.886084 585.884022 485.796269 586.392976 485.706453 587.141438 485.601669 587.859962 485.392099 588.548546 485.122654 589.237132 484.79333 589.850871 484.419099 590.479578 484.044868 591.093318 483.715545 591.692087 483.251499 592.216011 482.757514 592.769873 482.203652 593.189012 481.64979 593.638089 481.095927 594.087166 480.527096 594.491335 479.898388 594.820659 479.224772 595.164951 478.491279 595.359552 477.757787 595.539182 477.263802 595.673906 476.874601 595.958321 476.365648 596.033167L224.044113 629.504391C221.050266 629.938499 218.041448 629.085252 215.64637 627.229067 213.281229 625.372881 211.754366 622.61854 211.410074 619.624692L208.775488 596.137952 195.153477 596.137952C188.956212 596.137952 183.926547 591.108287 183.926547 584.911021L183.926547 373.695024 160.454776 163.931045C160.125452 160.982104 160.9787 158.018194 162.849855 155.697961 164.691071 153.36276 167.415474 151.865836 170.364414 151.536513L183.926547 150.024619 183.926547 126.388187C183.926547 126.268433 183.986424 126.178617 183.986424 126.058864 184.016362 125.250524 184.285808 124.472124 184.465439 123.663784 184.630101 123.035077 184.689977 122.37643 184.944455 121.792629 185.213901 121.238767 185.64801 120.78969 185.977333 120.265767 186.471318 119.562213 186.875487 118.82872 187.504196 118.259888 187.579042 118.170074 187.608979 118.065289 187.698795 117.990442 188.222719 117.511427 188.896335 117.25695 189.480135 116.912657 190.004059 116.598303 190.453136 116.209103 191.006998 115.984564 192.35423 115.46064 193.71643 115.161256 195.153477 115.161256L495.496338 115.161256 793.908165 81.809786C794.327304 81.764879 794.731473 81.73494 795.150612 81.73494 800.794017 81.73494 805.644051 85.971235 806.302698 91.719423L808.922314 115.161256 822.574263 115.161256C828.771529 115.161256 833.801194 120.19092 833.801194 126.388187L833.801194 337.589215 857.272964 547.383133C857.602287 550.332073 856.719102 553.295983 854.877886 555.631184L854.877886 555.631184ZM232.456827 605.748205 304.937894 596.137952 231.379041 596.137952 232.456827 605.748205 232.456827 605.748205ZM220.15211 137.615118 442.684854 388.020588 689.168383 137.615118 220.15211 137.615118 220.15211 137.615118ZM785.240974 105.371372 697.670913 115.161256 786.333729 115.161256 785.240974 105.371372 785.240974 105.371372ZM811.347331 137.615118 720.693606 137.615118 540.613631 320.524279 604.083215 383.933985 811.347331 176.669869 811.347331 137.615118 811.347331 137.615118Z"  horiz-adv-x="1024" />

    
    <glyph glyph-name="fenxiang" unicode="&#59012;" d="M609.031174 101.548936 374.310448 231.949342C341.269904 195.829874 293.751033 173.176471 240.941176 173.176471 141.140073 173.176471 60.235294 254.081253 60.235294 353.882353 60.235294 453.683456 141.140073 534.588235 240.941176 534.588235 299.628345 534.588235 351.781306 506.611966 384.791241 463.268243L611.183152 599.103388C605.451246 616.72175 602.352941 635.528463 602.352941 655.058824 602.352941 754.859927 683.257723 835.764706 783.058824 835.764706 882.859924 835.764706 963.764706 754.859927 963.764706 655.058824 963.764706 555.25772 882.859924 474.352941 783.058824 474.352941 724.371655 474.352941 672.218696 502.329211 639.208761 545.672933L412.81685 409.837788C418.548755 392.219426 421.647059 373.412713 421.647059 353.882353 421.647059 328.590627 416.451163 304.512467 407.068579 282.657081L634.846015 156.114059C667.51179 202.846112 721.715808 233.411765 783.058824 233.411765 882.859924 233.411765 963.764706 152.506982 963.764706 52.705882 963.764706-47.095218 882.859924-128 783.058824-128 683.257723-128 602.352941-47.095218 602.352941 52.705882 602.352941 69.631193 604.679837 86.01303 609.031174 101.548936L609.031174 101.548936 609.031174 101.548936ZM783.058824 534.588235C849.592892 534.588235 903.529412 588.524755 903.529412 655.058824 903.529412 721.592892 849.592892 775.529412 783.058824 775.529412 716.524755 775.529412 662.588235 721.592892 662.588235 655.058824 662.588235 588.524755 716.524755 534.588235 783.058824 534.588235L783.058824 534.588235ZM783.058824-67.764706C849.592892-67.764706 903.529412-13.828186 903.529412 52.705882 903.529412 119.239951 849.592892 173.176471 783.058824 173.176471 716.524755 173.176471 662.588235 119.239951 662.588235 52.705882 662.588235-13.828186 716.524755-67.764706 783.058824-67.764706L783.058824-67.764706ZM240.941176 233.411765C307.475245 233.411765 361.411765 287.348284 361.411765 353.882353 361.411765 420.416422 307.475245 474.352941 240.941176 474.352941 174.407108 474.352941 120.470588 420.416422 120.470588 353.882353 120.470588 287.348284 174.407108 233.411765 240.941176 233.411765L240.941176 233.411765Z"  horiz-adv-x="1024" />

    
    <glyph glyph-name="caidanlangouwuche" unicode="&#59026;" d="M920.6784 642.048c-14.848 20.5824-39.936 32.9728-66.9696 32.9728L366.6944 675.0208c-10.4448 0-18.944-8.4992-18.944-18.944 0-10.4448 8.4992-18.944 18.944-18.944l486.912 0c14.9504 0 28.4672-6.4512 36.2496-17.2032 7.3728-10.24 8.8064-22.9376 4.096-36.864l-58.2656-174.7968c-4.1984-11.8784-19.7632-50.7904-45.568-50.7904l-486.4 0-47.4112 355.328c-2.9696 22.6304-22.528 39.6288-45.3632 39.6288L107.4176 752.4352l0 0c-10.4448 0-18.944-8.4992-18.944-18.944 0-10.4448 8.4992-18.944 18.944-18.944l0 0L210.944 714.5472c3.8912 0 7.2704-2.9696 7.7824-6.7584l60.5184-453.632c6.4512-38.6048 32.4608-63.488 66.3552-63.488l476.2624 0c0 0 0.1024 0 0.1024 0 10.4448 0 18.944 8.4992 18.944 18.944 0 10.4448-8.4992 18.944-18.944 18.944l0 0L345.6 228.5568c-21.9136 0-27.7504 24.3712-28.8768 31.232l-7.9872 59.8016 481.3824 0c34.816 0 64.4096 27.7504 81.5104 76.4928l58.368 175.0016C938.496 596.5824 935.2192 621.7728 920.6784 642.048zM421.1712 165.2736c-41.2672 0-74.8544-33.5872-74.8544-74.8544s33.5872-74.8544 74.8544-74.8544c41.2672 0 74.8544 33.5872 74.8544 74.8544S462.4384 165.2736 421.1712 165.2736zM421.1712 53.5552c-20.3776 0-36.9664 16.5888-36.9664 36.9664s16.5888 36.9664 36.9664 36.9664c20.3776 0 36.9664-16.5888 36.9664-36.9664S441.5488 53.5552 421.1712 53.5552zM746.2912 165.2736c-41.2672 0-74.8544-33.5872-74.8544-74.8544s33.5872-74.8544 74.8544-74.8544 74.8544 33.5872 74.8544 74.8544S787.5584 165.2736 746.2912 165.2736zM746.2912 53.5552c-20.3776 0-36.9664 16.5888-36.9664 36.9664s16.5888 36.9664 36.9664 36.9664 36.9664-16.5888 36.9664-36.9664S766.6688 53.5552 746.2912 53.5552z"  horiz-adv-x="1024" />

    
    <glyph glyph-name="tuijiandianpu" unicode="&#59120;" d="M753.963821-34.99477c-9.950629 0-19.378349 2.618641-27.234271 7.855922L509.381359 104.318136 277.368168-10.903072c-17.282618-8.379854-38.232766-6.808056-53.94461 4.189416s-23.043832 29.852912-18.854417 47.659463l54.991452 244.582461L81.493036 452.075445c-13.617136 12.56927-18.330484 31.94762-12.045337 49.230238 6.285147 16.759709 23.043832 29.328979 41.898249 31.423687l231.489258 25.662473L467.48311 777.835763c8.903787 15.711843 26.186406 25.662473 45.564755 25.139563s36.137035-10.998495 44.51689-27.234271l109.459994-217.34819 245.106394-25.662473c19.378349-2.094708 35.614126-14.141068 42.422182-31.423687 6.285147-17.282618 1.570775-36.660968-12.045337-49.230238L791.671631 311.191764c-9.426697-8.903787-24.615631-8.903787-34.042327 0-8.903787 8.903787-8.903787 23.043832 0.523933 31.94762l150.310378 140.883681c0.523933 0.523933 1.047866 1.570775 0.523933 2.618641 0 0.523933-1.047866 1.047866-2.094708 1.570775l-271.816732 27.758204L514.094708 756.362706c-0.523933 1.047866-1.047866 1.570775-2.094708 1.570775s-2.094708-0.523933-2.094708-1.047866L373.73496 515.970684l-256.627798-27.758204c-1.047866-0.523933-2.094708-1.047866-2.094708-1.570775-0.523933-1.047866 0-2.094708 0.523933-2.618641l196.399065-183.829795-60.228733-268.674159c-0.523933-0.523933 0-1.570775 0.523933-2.094708 1.047866-0.523933 2.094708-0.523933 3.142573 0L512 156.167015l240.392022-145.597029 1.570775-0.523933 1.570775 0.523933c1.047866 0.523933 1.047866 1.570775 1.047866 2.618641L632.457466 372.468362c-4.189416 11.522428 2.618641 24.615631 15.711843 28.281113 12.56927 3.666506 25.662473-2.618641 29.852912-14.663978l124.123972-359.279736c6.285147-18.854417-0.523933-39.803541-17.283642-51.848878C775.959787-31.328263 764.961292-34.99477 753.963821-34.99477zM374.782825 335.807395c-6.285147 0-12.045337 2.618641-16.759709 6.808056l-71.227228 66.51388c-9.426697 8.379854-9.426697 23.043832 0 31.423687 9.426697 8.903787 24.615631 8.903787 34.042327 0.523933l70.703295-66.51388c9.426697-8.903787 9.426697-23.043832 0-31.94762C386.828163 338.426035 381.066949 335.807395 374.782825 335.807395z"  horiz-adv-x="1024" />

    
    <glyph glyph-name="shaixuan" unicode="&#59083;" d="M930.304 889.344 101.888 889.344C22.016 889.344 2.56 851.456 2.56 804.864c0-25.6 17.92-53.248 26.112-61.44l296.448-296.448 0-153.6 0 0 0-26.624 0 0c0 0 0 0 0-0.512 0-19.456 6.656-35.328 26.112-35.328s26.112 15.872 26.112 35.328c0 0 0 205.312 0 205.312 0 2.56-289.792 289.792-302.08 301.568-15.36 15.36-17.408 64.512 54.784 64.512l779.264 0c53.76 0 63.488-38.4 33.28-69.12l-251.392-250.368c-3.072-3.072-49.664-44.032-49.664-46.592 0-2.56 0-281.6 0-510.464 1.536-17.408-16.384-57.344-63.488-9.728l-76.8 71.68c-2.048 2.048-22.528 6.656-33.28-5.12-10.752-11.264-4.096-33.792-3.072-34.816l81.92-80.896c0.512-0.512 1.536-1.536 2.56-1.536 15.872-15.872 36.864-24.064 59.392-24.064 47.104 0 84.992 37.888 84.992 84.48L693.76 446.976l296.448 296.448c0.512 0.512 26.112 30.72 26.112 61.44C1014.784 851.456 976.896 889.344 930.304 889.344zM386.56 162.816c-20.48 0-37.376-16.896-37.376-37.376 0-20.48 16.896-37.376 37.376-37.376s37.376 16.896 37.376 37.376C423.424 145.92 407.04 162.816 386.56 162.816z"  horiz-adv-x="1024" />

    
    <glyph glyph-name="woshimaijia" unicode="&#58971;" d="M790.4 143.36c-11.52 62.08-44.16 119.04-92.16 161.28-6.4 5.76-16.64 5.12-22.4-1.28-5.76-6.4-5.12-16.64 1.28-22.4 42.24-37.12 71.68-87.68 81.28-142.72 1.28-7.68 8.32-13.44 16-13.44h3.2c8.96 1.28 14.72 9.6 12.8 18.56zM515.2 679.68c-94.08 0-170.88-76.8-170.88-170.88 0-63.36 34.56-119.04 86.4-148.48-106.24-32-184.32-123.52-193.92-234.88-0.64-8.96 5.76-16.64 14.72-17.28h1.28c8.32 0 15.36 6.4 16 14.72 10.24 115.2 103.04 206.08 222.08 216.96 8.32-1.28 16.64-1.92 24.96-1.92 94.08 0 170.88 76.8 170.88 170.88s-77.44 170.88-171.52 170.88z m0-310.4c-76.8 0-138.88 62.08-138.88 138.88s62.08 138.88 138.88 138.88 138.88-62.08 138.88-138.88-62.08-138.88-138.88-138.88z"  horiz-adv-x="1024" />

    
    <glyph glyph-name="youquanyi" unicode="&#59492;" d="M222.958978 294.930405L86.880743 59.236382l145.461953-0.647753 73.29226-125.649722 129.804344 224.826512c-86.558401 18.718317-161.2925 68.583005-212.480322 137.164986zM801.041022 294.930405c-51.187823-68.581981-125.922944-118.446669-212.479299-137.163963L718.365044-67.060069l73.29226 125.649721 145.461953 0.647753-136.078235 235.693zM512 835.061093c-179.361017 0-324.763618-145.400554-324.763618-324.763619 0-179.362041 145.401578-324.763618 324.763618-324.763618s324.763618 145.401578 324.763618 324.763618c0 179.362041-145.402601 324.763618-324.763618 324.763619zM276.393981 443.378365c-1.790786 1.369184-1.739621 7.380084 6.53381 7.807827 9.086959 0.470721 65.789379-17.436114 65.789379-17.436115l-37.157272-14.421454s-16.620539 9.868765-35.165917 24.049742z m437.524798 64.614624S418.659125 390.167466 364.365568 393.501398c-15.533788 0.953721-38.882566 12.95608-38.882565 12.95608 1.61887 1.011027 3.328815 1.917676 5.172812 2.632967l125.665071 50.718125s-30.435173 28.78151-91.013876 76.15547c-4.341888 3.397377-5.052063 18.877953 12.192693 18.371417 18.948561-0.554632 171.310667-57.614186 171.310668-57.614186l161.745824 66.799382c15.82236 6.14086 31.791054 2.127454 37.932937-13.693884 6.138814-15.82236-9.873882-32.247448-34.570353-41.83378z"  horiz-adv-x="1024" />

    
    <glyph glyph-name="youhuiquan" unicode="&#58951;" d="M2494.708 196.655c7.619 0 14.676 2.207 20.816 5.767v-73.98c-6 3.608-13.239 5.751-20.977 5.767-22.832-0.001-41.472-18.639-41.472-41.633 0-22.993 18.639-41.633 41.632-41.633 7.619 0 14.676 2.207 20.816 5.767v-68.215h-2185.701v68.215c6.14-3.56 13.198-5.767 20.816-5.767 22.993 0 41.633 18.639 41.633 41.633 0 22.993-18.639 41.632-41.633 41.632-7.619 0-14.676-2.206-20.816-5.766v73.98c6.14-3.56 13.198-5.767 20.816-5.767 22.993 0 41.633 18.639 41.633 41.632 0 22.993-18.639 41.632-41.633 41.632-7.619 0-14.676-2.206-20.816-5.767v73.98c6.14-3.56 13.198-5.767 20.816-5.767 0 0 0 0 0 0 22.993 0 41.633 18.639 41.633 41.633 0 22.993-18.639 41.633-41.633 41.633 0 0 0 0 0 0-7.619 0-14.676-2.207-20.816-5.767v73.98c6.14-3.56 13.198-5.767 20.816-5.767 0 0 0 0 0 0 22.993 0 41.633 18.639 41.633 41.632 0 22.993-18.639 41.633-41.633 41.633 0 0 0 0 0 0-7.619 0-14.676-2.207-20.816-5.767v73.98c6.14-3.56 13.198-5.767 20.816-5.767 22.993 0 41.633 18.639 41.633 41.633 0 22.993-18.639 41.632-41.633 41.632-7.619 0-14.676-2.207-20.816-5.767v68.215h2185.701v-68.215c-6 3.608-13.239 5.751-20.977 5.767 0.161-0.001 0.161-0.001 0.161-0.001-22.993 0-41.632-18.639-41.632-41.633 0-22.993 18.639-41.632 41.632-41.632 0 0 0 0 0 0 7.619 0 14.676 2.206 20.816 5.767v-73.98c-6 3.608-13.239 5.751-20.977 5.767 0.161-0.001 0.161-0.001 0.161-0.001-22.993 0-41.632-18.639-41.632-41.633 0-22.993 18.639-41.632 41.632-41.632 0 0 0 0 0 0 7.619 0 14.676 2.206 20.816 5.767v-73.98c-6 3.608-13.239 5.751-20.977 5.767-22.832-0.001-41.472-18.639-41.472-41.633 0-22.993 18.639-41.633 41.632-41.633 7.619 0 14.676 2.207 20.816 5.767v-73.98c-6 3.608-13.239 5.751-20.977 5.767-22.832-0.001-41.472-18.639-41.472-41.633 0-22.993 18.639-41.632 41.632-41.632z"  horiz-adv-x="2829" />

    
    <glyph glyph-name="zhushou-xuanzhong" unicode="&#59121;" d="M491.183838 822.30303h-227.814141c-68.913131 0-123.086869-18.230303-144.937374-64.129293v-722.618181c8.791919-57.923232 63.094949-89.858586 144.937374-89.858586h643.620202v876.60606h-415.806061z m-180.751515-38.270707h154.89293v-350.642424l-59.216162 59.216162c-5.042424 5.042424-11.636364 7.49899-18.230303 7.49899s-13.187879-2.585859-18.230303-7.49899l-59.216162-59.216162V784.032323z m556.864647-800.064646h-603.927273c-57.406061 0-107.70101 30.125253-107.70101 64.517171s50.294949 64.517172 107.70101 64.517172h603.927273v-129.034343z"  horiz-adv-x="1024" />

    
    <glyph glyph-name="ddailirenshu" unicode="&#59062;" d="M748.25 406.5l39.375-33.75-225-253.125-202.5 140.625-292.5-168.75 50.625-95.625 241.875 140.625 213.75-151.875 292.5 320.625 45-39.375 45 213.75zM832.625 569.625h-45l-11.25 11.25c-5.625 5.625-5.625 11.25 0 16.875 5.625 11.25 11.25 16.875 11.25 28.125 0 5.625 0 5.625 5.625 11.25 0 0 11.25 5.625 16.875 16.875 5.625 11.25 0 22.5 0 22.5v22.5c0 11.25-5.625 22.5-5.625 33.75l-16.875 16.875c-33.75 22.5-67.5 22.5-101.25 0-28.125-22.5-28.125-45-28.125-73.125-11.25 0 0-39.375 11.25-33.75l5.625-11.25c0-5.625 5.625-11.25 5.625-16.875 5.625-5.625 11.25-16.875 5.625-28.125 0-5.625-5.625-16.875-5.625-22.5-16.875-11.25-16.875-11.25-22.5-11.25h-33.75c-11.25-5.625-16.875-33.75-28.125-73.125-5.625 0-5.625 5.625-5.625 5.625-5.625 11.25-61.875 16.875-67.5 16.875 0 5.625 0 16.875-5.625 28.125l28.125 28.125h28.125c5.625 50.625-11.25 129.375-28.125 146.25-33.75 28.125-101.25 16.875-129.375 0-16.875-16.875-28.125-84.375-16.875-135h28.125c5.625-16.875 11.25-28.125 22.5-39.375 0-5.625-5.625-22.5-5.625-28.125-5.625 0-61.875-5.625-67.5-11.25-5.625-5.625-11.25-28.125-11.25-56.25 0 16.875-5.625 22.5-11.25 22.5h-28.125c-11.25 0-28.125 5.625-33.75 5.625-11.25 5.625-11.25 11.25-11.25 28.125 5.625 16.875 11.25 28.125 11.25 33.75 5.625 0 11.25 22.5 11.25 28.125 0 5.625 0 11.25-5.625 11.25 11.25 28.125 11.25 61.875-11.25 84.375-11.25 22.5-39.375 28.125-61.875 28.125-11.25 0-22.5 0-28.125-5.625-16.875-5.625-33.75-22.5-45-39.375 0-11.25-5.625-22.5-5.625-28.125 0-5.625 5.625-39.375 5.625-39.375-11.25 0 0-39.375 16.875-39.375 5.625-11.25 16.875-28.125 22.5-33.75 0-16.875 0-22.5-5.625-28.125-11.25-11.25-16.875-11.25-28.125-11.25h-28.125s-11.25 0-11.25-5.625c-39.375-45-39.375-151.875-39.375-196.875v-84.375l303.75 168.75 168.75-112.5 298.125 320.625c-11.25 11.25-11.25 16.875-16.875 28.125z"  horiz-adv-x="1024" />

    
    <glyph glyph-name="icon-mima" unicode="&#58892;" d="M817.079812 505.95047H756.063133v81.339539c0 134.512576-109.475344 243.931638-244.062621 243.931639S267.93482 721.802586 267.93482 587.292056v-81.341586h-61.015655c-33.69952 0-61.016679-27.301809-61.016679-60.98291v-447.206298c0-33.679054 27.318182-60.98291 61.016679-60.98291h610.160647c33.69952 0 61.016679 27.302833 61.016679 60.98291V444.968583c0 33.680077-27.318182 60.981886-61.016679 60.981887z m-488.129336 81.341586c0 100.882642 82.109066 182.948729 183.049012 182.948729 100.939947 0 183.049013-82.066087 183.049013-182.948729v-81.341586h-366.098025v81.341586z m488.129336-589.530794H206.919165V444.968583h610.160647v-447.207321zM512.000512 109.553371c16.84362 0 30.507828 13.657045 30.507827 30.491455V302.664553c0 16.832364-13.664208 30.491455-30.507827 30.491455s-30.507828-13.659091-30.507828-30.491455v-162.620751c-0.001023-16.83441 13.664208-30.490431 30.507828-30.490431z"  horiz-adv-x="1024" />

    
    <glyph glyph-name="zhifubao" unicode="&#58997;" d="M512 384m-512 0a512 512 0 1 1 1024 0 512 512 0 1 1-1024 0ZM680.448 313.856c42.496 45.568 81.92 204.8 81.92 204.8h-196.096V588.8h235.52v37.888h-235.52V742.4H491.52c-32.256 0-36.352-18.944-36.352-18.944v-97.792H216.576V588.8h241.152v-70.144H257.536v-39.424h380.416c-7.168-54.272-54.272-133.12-54.272-133.12s-182.784 61.44-259.072 61.44c-197.632 0-229.888-136.192-229.888-171.008 0-35.328 17.408-181.248 209.408-181.248s315.904 171.008 315.904 171.008l381.952-171.008v155.136c-73.216 15.36-194.56 56.32-321.536 103.424z m-431.616-190.464c-181.248 20.48-128.512 240.128 55.808 216.576 144.896-20.48 226.816-73.216 226.816-73.216s-101.376-162.304-282.624-143.36z"  horiz-adv-x="1024" />

    
    <glyph glyph-name="chakangengduo" unicode="&#59006;" d="M553.128 388.197c0-7.554-3.357-14.269-8.393-20.144-5.036-5.036-12.59-8.393-20.144-8.393-7.554 0-14.269 3.357-20.144 8.393l-381.902 382.741c-5.036 5.036-8.393 12.59-8.393 20.144s3.357 14.269 8.393 20.144c10.911 10.911 28.538 10.911 39.449 0l383.58-382.741c5.036-5.036 7.554-12.59 7.554-20.144zM553.128 386.518c0-7.554-3.357-14.269-8.393-20.144l-382.741-381.902c-5.036-5.036-12.59-8.393-20.144-8.393s-14.269 3.357-20.144 8.393c-5.036 5.036-8.393 12.59-8.393 20.144s3.357 14.269 8.393 20.144l382.741 382.741c10.911 10.911 28.538 10.911 39.449 0 6.715-6.715 9.233-13.43 9.233-20.984zM909.010 388.197c0-7.554-3.357-14.269-8.393-20.144s-12.59-8.393-20.144-8.393-14.269 3.357-20.144 8.393l-381.902 382.741c-5.036 5.036-8.393 12.59-8.393 20.144s3.357 14.269 8.393 20.144c10.911 10.911 28.538 10.911 40.289 0l382.741-382.741c5.036-5.036 7.554-12.59 7.554-20.144zM909.010 386.518c0-7.554-3.357-15.108-8.393-20.144l-381.902-381.902c-5.036-5.036-12.59-8.393-20.144-8.393s-14.269 3.357-20.144 8.393c-5.036 5.036-8.393 12.59-8.393 20.144s3.357 14.269 8.393 19.305l382.741 382.741c10.911 10.911 28.538 10.911 39.449 0 5.875-5.036 8.393-12.59 8.393-20.144z"  horiz-adv-x="1024" />

    
    <glyph glyph-name="icon-test" unicode="&#58899;" d="M351.505167 405.692045c-9.836019 0-17.792225-7.27673-17.792224-16.261359v-91.205235h-128.967281c-7.607258 0-13.68365-8.043187-13.68365-17.880229 0-9.931187 6.16235-17.879206 13.68365-17.879206h150.86808c5.048993 0 9.330506 3.76065 11.646248 9.069563 0.261966 0.505513 0.592494 0.940418 0.766456 1.531889 0.173962 0.601704 0.260943 1.289366 0.434905 1.880837 0.330528 1.288343 0.853437 2.489704 0.853438 3.76986V389.344728c0 8.983605-7.956206 16.347317-17.809622 16.347317z m504.531912 352.673271H424.58765c-36.367279 0-65.980737-30.030967-65.980737-66.99074v-191.482079H246.684844c-75.55479 0-138.628314-59.556421-144.094816-134.2414l-0.592494-227.170907c0-36.872792 29.595039-66.903759 65.963341-66.903759h49.040926v-5.727445c0-31.493272 31.301913-56.214303 71.272253-56.214302 39.953967 0 71.273277 24.642237 71.273277 56.214302v5.727445h304.902268v-5.727445c0-31.493272 31.318286-56.214303 71.27123-56.214302 39.97341 0 71.273277 24.642237 71.273277 56.214302v5.727445h49.040926c36.367279 0 65.963341 30.030967 65.963341 66.903759V691.374576c0.002047 36.959773-29.594015 66.99074-65.961294 66.99074z m30.29191-619.798145c0-17.279548-13.613042-31.311123-30.29191-31.311123h-84.712357v-41.407062c0-9.758248-15.231913-20.542872-35.687804-20.542872-20.367887 0-35.68985 10.863419-35.68985 20.542872v41.320081H323.876923v-41.320081c0-9.758248-15.232936-20.542872-35.688827-20.542872s-35.671431 10.863419-35.67143 20.542872v41.320081h-84.729754c-16.695241 0-30.29191 14.031575-30.29191 31.311123v149.648299l0.260943 69.131497c1.11438 59.033511 49.963948 107.039875 108.841918 107.039875h147.611919V691.374576c0 17.279548 13.614066 31.311123 30.29191 31.311123h431.450452c16.676821 0 30.29191-14.031575 30.291911-31.311123v-552.807405h0.084934z"  horiz-adv-x="1024" />

    
    <glyph glyph-name="tuikuan" unicode="&#58896;" d="M558.592-59.904c-116.224 0-225.792 44.544-309.248 125.44-8.192 8.192-8.704 21.504-0.512 29.696 8.192 8.192 21.504 8.704 29.696 0.512 75.264-73.216 174.592-113.152 279.552-113.152 221.696 0 401.92 180.224 401.92 401.92S779.776 786.432 558.08 786.432s-401.92-180.224-401.92-401.92c0-27.648 2.56-54.784 8.192-80.896 2.56-11.264-5.12-22.528-16.384-24.576s-22.528 5.12-24.576 16.384c-6.144 29.184-9.216 59.392-9.216 89.6 0 244.736 199.168 443.904 443.904 443.904s443.904-199.168 443.904-443.904S803.84-59.904 558.592-59.904z m-408.576 314.88c-5.632 0-10.752 2.048-14.848 6.144l-108.032 108.032c-8.192 8.192-8.192 21.504 0 29.696s21.504 8.192 29.696 0l92.672-93.184 93.184 93.184c8.192 8.192 21.504 8.192 29.696 0s8.192-21.504 0-29.696l-108.032-108.032c-3.584-4.096-8.704-6.144-14.336-6.144z m377.344 156.16c-7.168 0-14.336 3.584-18.432 10.752l-110.08 193.536c-5.632 10.24-2.048 23.04 7.68 28.672 10.24 5.632 23.04 2.048 28.672-7.68l110.08-193.536c5.632-10.24 2.048-23.04-7.68-28.672-3.072-2.048-6.656-3.072-10.24-3.072z m76.288 0c-3.584 0-7.168 1.024-10.24 2.56-10.24 5.632-13.824 18.432-7.68 28.672l110.08 193.536c5.632 10.24 18.432 13.824 28.672 7.68s13.824-18.432 7.68-28.672l-110.08-193.536c-4.096-6.144-11.264-10.24-18.432-10.24z m110.08 0h-309.76c-11.776 0-20.992 9.216-20.992 20.992s9.216 20.992 20.992 20.992h309.76c11.776 0 20.992-9.216 20.992-20.992s-9.216-20.992-20.992-20.992z m-26.112-126.976H430.08c-11.776 0-20.992 9.216-20.992 20.992s9.216 20.992 20.992 20.992h257.536c11.776 0 20.992-9.216 20.992-20.992s-9.216-20.992-20.992-20.992z m-129.024-175.616c-11.776 0-20.992 9.216-20.992 20.992v302.592c0 11.776 9.216 20.992 20.992 20.992s20.992-9.216 20.992-20.992v-302.592c0-11.776-9.216-20.992-20.992-20.992z"  horiz-adv-x="1024" />

    
    <glyph glyph-name="sucai" unicode="&#58926;" d="M256 412.992a32 32 0 0 1-0.064-64H256a32.128 32.128 0 0 1 32 32 32.064 32.064 0 0 1-32 32M256 185.344a32 32 0 1 1 0-64 32 32 0 0 1 0 64M768.384 413.056H369.344c-15.488-0.064-27.968-14.208-28.032-31.616v-0.896c0-17.408 12.608-31.552 28.032-31.552h398.976c15.488 0 28.032 14.144 28.032 31.552V381.44c0 17.408-12.48 31.552-27.968 31.616M768.384 185.344H369.344c-15.488 0-28.032-14.144-28.032-31.488v-0.896c0-17.344 12.608-31.616 28.032-31.616h398.976c15.488 0.128 28.032 14.272 28.032 31.616v0.896c0 17.408-12.48 31.488-27.968 31.488M878.528-98.496H145.408A145.6 145.6 0 0 0 0 46.848V501.184a145.6 145.6 0 0 0 145.408 145.408h733.056A145.664 145.664 0 0 0 1024 501.184v-454.272a145.6 145.6 0 0 0-145.472-145.408zM145.408 582.592C100.544 582.592 64 546.048 64 501.184v-454.272c0-44.864 36.544-81.344 81.408-81.344h733.056c44.928 0 81.472 36.48 81.472 81.344V501.184c0 44.928-36.544 81.408-81.472 81.408H145.408zM32 234.752a32 32 0 0 0-32 32V721.024A145.6 145.6 0 0 0 145.408 866.432h250.56c7.104 0 13.952-2.368 19.584-6.656l284.672-219.904a31.936 31.936 0 1 0-39.104-50.624L385.088 802.496H145.408C100.544 802.496 64 765.952 64 721.024v-454.272a32 32 0 0 0-32-32z"  horiz-adv-x="1024" />

    
    </font>
</defs>
</svg>
